<svg width="40" height="40" viewBox="0 0 40 40" fill="none" xmlns="http://www.w3.org/2000/svg">
<path d="M19.3438 0.148438C19.2266 0.226562 19.0547 0.398438 18.9766 0.515625C18.8359 0.726562 18.8281 0.929688 18.8281 3.55469C18.8281 6.17969 18.8359 6.38281 18.9766 6.59375C19.2188 6.95312 19.5156 7.10938 20 7.10938C20.4844 7.10938 20.7812 6.95312 21.0234 6.59375C21.1641 6.38281 21.1719 6.17969 21.1719 3.55469C21.1719 0.929688 21.1641 0.726562 21.0234 0.515625C20.7812 0.15625 20.4844 0 20 0C19.7109 0 19.5 0.046875 19.3438 0.148438Z" fill="#79C3B6"/>
<path d="M6.18062 5.6875C6.03218 5.75781 5.84468 5.91406 5.75874 6.03125C5.53999 6.32812 5.49312 6.9375 5.66499 7.27343C5.83687 7.61718 8.91499 10.7266 9.36812 11.0234C9.93843 11.3906 10.665 11.2812 11.04 10.7656C11.2587 10.4687 11.3056 9.85937 11.1337 9.52343C10.9619 9.17968 7.88374 6.07031 7.43062 5.77343C7.01655 5.50781 6.58687 5.47656 6.18062 5.6875Z" fill="#79C3B6"/>
<path d="M32.5712 5.77343C32.1181 6.07031 29.04 9.17968 28.8681 9.52343C28.6962 9.85937 28.7431 10.4687 28.9619 10.7656C29.3369 11.2812 30.0634 11.3906 30.6337 11.0234C31.0869 10.7266 34.165 7.61718 34.3368 7.27343C34.5087 6.9375 34.4618 6.32812 34.2431 6.03125C33.8681 5.51562 33.1415 5.40625 32.5712 5.77343Z" fill="#79C3B6"/>
<path d="M17.976 9.61719C14.2026 10.3203 11.1401 12.9844 9.9604 16.5938C9.56197 17.8125 9.42915 18.8672 9.47603 20.3516C9.56197 23.1016 10.4057 25.1641 12.3276 27.2891C13.5307 28.625 13.9213 29.5 14.062 31.1719C14.1557 32.2578 14.2651 32.5781 14.6479 32.8125C14.8901 32.9609 15.0542 32.9688 19.9995 32.9688C24.9448 32.9688 25.1088 32.9609 25.351 32.8125C25.726 32.5781 25.8432 32.2578 25.9292 31.25C26.062 29.6797 26.4995 28.6484 27.4917 27.5234C29.1948 25.6094 30.0463 23.9219 30.4292 21.7266C30.5932 20.7969 30.5776 19.1172 30.3979 18.1172C29.601 13.7109 26.1323 10.2734 21.7651 9.57031C20.726 9.40625 19.0073 9.42969 17.976 9.61719ZM20.5776 14.3672C21.2651 14.8203 21.2729 15.8281 20.5776 16.25C20.437 16.3438 20.0698 16.4297 19.6479 16.4766C18.187 16.6484 17.0698 17.5 16.6401 18.7891C16.5463 19.0625 16.3745 19.375 16.2417 19.5156C15.5776 20.1953 14.3745 19.7266 14.3745 18.7812C14.3745 18.0859 14.9682 16.875 15.7104 16.0547C16.7495 14.9297 18.2651 14.2344 19.726 14.2266C20.2104 14.2188 20.3979 14.25 20.5776 14.3672Z" fill="#79C3B6"/>
<path d="M0.515625 18.9766C0.15625 19.2188 0 19.5156 0 20C0 20.4844 0.15625 20.7812 0.515625 21.0234C0.726562 21.1641 0.929688 21.1719 3.55469 21.1719C6.17969 21.1719 6.38281 21.1641 6.59375 21.0234C6.95312 20.7812 7.10938 20.4844 7.10938 20C7.10938 19.5156 6.95312 19.2188 6.59375 18.9766C6.38281 18.8359 6.17969 18.8281 3.55469 18.8281C0.929688 18.8281 0.726562 18.8359 0.515625 18.9766Z" fill="#79C3B6"/>
<path d="M33.4062 18.9766C33.0469 19.2188 32.8906 19.5156 32.8906 20C32.8906 20.4844 33.0469 20.7812 33.4062 21.0234C33.6172 21.1641 33.8203 21.1719 36.4453 21.1719C39.0703 21.1719 39.2734 21.1641 39.4844 21.0234C39.8438 20.7812 40 20.4844 40 20C40 19.5156 39.8438 19.2188 39.4844 18.9766C39.2734 18.8359 39.0703 18.8281 36.4453 18.8281C33.8203 18.8281 33.6172 18.8359 33.4062 18.9766Z" fill="#79C3B6"/>
<path d="M15.3125 36.2344C15.3125 36.9531 15.3438 37.2656 15.4609 37.6016C15.8281 38.6719 16.6406 39.4844 17.7188 39.8516C18.0938 39.9844 18.3828 40 20 40C21.6328 40 21.9062 39.9844 22.2891 39.8516C23.3594 39.4844 24.1719 38.6719 24.5391 37.5938C24.6562 37.2656 24.6875 36.9453 24.6875 36.2344V35.3125H20H15.3125V36.2344Z" fill="#79C3B6"/>
</svg>
