<svg width="532" height="354" viewBox="0 0 532 354" fill="none" xmlns="http://www.w3.org/2000/svg">
<path d="M165.506 318.999H204.787V44.5163H165.506V318.999Z" fill="#FFC8B2"/>
<path d="M163.08 319H202.361V44.5169H163.08V319Z" fill="#FFDBCC"/>
<path d="M277.719 319H317V15.9743H277.719V319Z" fill="#FFC8B2"/>
<path d="M274.966 319H314.966V15.9998H274.966V319Z" fill="#FFDBCC"/>
<path d="M110.649 117.268H149.931V319H110.649V117.268Z" fill="#FFC8B2"/>
<path d="M107.993 117.268H147.274V319H107.993V117.268Z" fill="#FFDBCC"/>
<path d="M220.722 318.606H260V80.0002H220.722V318.606Z" fill="#FFC8B2"/>
<path d="M218 319H258V80H218V319Z" fill="#FFDBCC"/>
<path d="M332 303H372V64.0001H332V303Z" fill="#FFC8B2"/>
<path d="M369 319H330V64.0001H369V319Z" fill="#FFDBCC"/>
<path d="M405 39L371.928 62.8476L384.544 63.6148L305.6 196.091L261.886 133.607L200.055 271.127L160.282 217.263L110.709 284.077L113.828 296.036L160.259 233.758L202.301 290.694L263.908 153.679L306.322 214.305L393.72 67.6377L401.835 75.958L405 39Z" fill="url(#paint0_linear_1_19)"/>
<path d="M461.347 281.388L457.651 294.292C457.053 296.378 433.282 291.402 404.562 283.18C375.837 274.958 353.037 266.601 353.636 264.514L357.336 251.612L461.347 281.388Z" fill="#FFF7D4"/>
<path d="M418.972 287.147L423.711 270.613L461.347 281.388L457.65 294.292C457.156 296.016 440.836 292.917 418.972 287.147Z" fill="#FFCB77"/>
<path d="M417.209 286.681C413.149 285.597 408.909 284.426 404.558 283.18C398.073 281.323 391.893 279.46 386.213 277.663L390.923 261.227L421.958 270.111L417.209 286.681Z" fill="#FFCB77"/>
<path d="M384.147 277.008C365.781 271.124 353.185 266.072 353.633 264.515L357.334 251.613L388.838 260.632L384.147 277.008Z" fill="#FFCB77"/>
<path d="M357.37 251.475C356.775 253.56 379.571 261.917 408.294 270.139C437.017 278.363 460.785 283.337 461.384 281.25C461.982 279.164 439.182 270.809 410.459 262.585C381.736 254.363 357.969 249.389 357.37 251.475Z" fill="#FFF7D4"/>
<path d="M366.552 254.102C366.136 255.548 384.973 262.211 408.626 268.981C432.28 275.753 451.79 280.069 452.206 278.623C452.618 277.176 433.781 270.515 410.127 263.744C386.474 256.972 366.968 252.657 366.552 254.102Z" fill="white" fill-opacity="0.5"/>
<path d="M427.712 192.579L431.649 205.412C432.286 207.487 409.643 216.265 381.08 225.02C352.514 233.775 328.843 239.192 328.207 237.117L324.27 224.286L427.712 192.579Z" fill="#FFF7D4"/>
<path d="M395.325 220.495L390.28 204.051L427.709 192.579L431.646 205.412C432.173 207.127 416.801 213.421 395.325 220.495Z" fill="#FFCB77"/>
<path d="M393.594 221.064C389.601 222.369 385.406 223.695 381.078 225.021C374.63 226.997 368.431 228.804 362.691 230.392L357.676 214.047L388.538 204.586L393.594 221.064Z" fill="#FFCB77"/>
<path d="M360.598 230.966C341.994 236.04 328.678 238.665 328.205 237.118L324.269 224.286L355.6 214.681L360.598 230.966Z" fill="#FFCB77"/>
<path d="M324.227 224.148C324.863 226.223 348.535 220.806 377.099 212.051C405.663 203.296 428.304 194.517 427.668 192.443C427.033 190.368 403.36 195.784 374.793 204.538C346.229 213.295 323.588 222.074 324.227 224.148Z" fill="#FFF7D4"/>
<path d="M333.356 221.352C333.796 222.79 353.224 218.112 376.745 210.901C400.266 203.691 418.979 196.681 418.539 195.243C418.096 193.804 398.671 198.483 375.147 205.692C351.623 212.903 332.913 219.912 333.356 221.352Z" fill="white" fill-opacity="0.5"/>
<path d="M476.603 110.709H503.081V109.923H476.603V110.709Z" fill="#DADBD8"/>
<path d="M503.081 109.923H476.603L479.152 94.8234H505.629L503.081 109.923Z" fill="#DADBD8"/>
<path d="M502.59 109.923H476.112L478.66 94.8234H505.138L502.59 109.923Z" fill="#E7E8E5"/>
<path d="M477.118 108.736L479.284 95.8974C479.312 95.7339 479.454 95.6141 479.62 95.6141H503.797C504.008 95.6141 504.168 95.8028 504.133 96.0097L501.966 108.849C501.938 109.012 501.796 109.132 501.63 109.132H477.453C477.243 109.132 477.083 108.943 477.118 108.736Z" fill="#FAFAF9"/>
<path d="M470.612 110.709H497.089V109.923H470.612V110.709Z" fill="#EDEDEB"/>
<path d="M531.698 68.3417C531.822 66.4961 530.419 64.9998 528.566 64.9998H477.042C475.189 64.9998 473.588 66.4961 473.465 68.3417L472.282 86.1057L464.864 140.772C464.613 142.618 465.912 144.114 467.765 144.114H519.29C521.142 144.114 522.847 142.618 523.098 140.772L530.516 86.1057L531.698 68.3417Z" fill="#9373CF"/>
<path d="M519.29 144.114H517.503C519.338 144.089 521.016 142.602 521.264 140.772L528.683 86.1057L529.865 68.3417C529.988 66.4961 528.586 64.9998 526.733 64.9998H477.043H528.567C530.344 64.9998 531.706 66.376 531.707 68.1166C531.707 68.1912 531.704 68.2661 531.699 68.3417L530.517 86.1057L527.178 110.709L526.932 112.524L523.099 140.772C522.848 142.618 521.143 144.114 519.29 144.114Z" fill="#51328B"/>
<path d="M517.457 144.115H465.932C464.079 144.115 462.78 142.618 463.031 140.773L470.449 86.1064H528.683L521.265 140.773C521.014 142.618 519.309 144.115 517.457 144.115Z" fill="#9373CF"/>
<path d="M526.733 65H475.208C473.356 65 471.754 66.4964 471.631 68.3419L470.449 86.106H528.683L529.865 68.3419C529.988 66.4964 528.586 65 526.733 65Z" fill="#9373CF"/>
<path d="M524.5 83.5277H474.975C474 83.5277 473.261 82.7399 473.326 81.7685L474.153 69.3377C474.218 68.366 475.061 67.5785 476.037 67.5785H525.561C526.537 67.5785 527.275 68.366 527.211 69.3377L526.383 81.7685C526.318 82.7399 525.475 83.5277 524.5 83.5277ZM516.091 80.3975C515.806 80.3975 515.558 80.6292 515.539 80.9125C515.518 81.2268 515.759 81.4838 516.075 81.4838H522.396C522.68 81.4838 522.929 81.2521 522.948 80.9688V80.9684C522.968 80.6544 522.727 80.3975 522.412 80.3975H516.091ZM508.179 80.3975C507.894 80.3975 507.645 80.6292 507.626 80.9125C507.605 81.2268 507.847 81.4838 508.163 81.4838H514.483C514.768 81.4838 515.016 81.2521 515.035 80.9688V80.9684C515.056 80.6544 514.814 80.3975 514.499 80.3975H508.179ZM500.266 80.3975C499.981 80.3975 499.732 80.6292 499.714 80.9125C499.693 81.2268 499.934 81.4838 500.25 81.4838H506.57C506.855 81.4838 507.103 81.2521 507.122 80.9688V80.9684C507.143 80.6544 506.902 80.3975 506.586 80.3975H500.266ZM492.353 80.3975C492.068 80.3975 491.82 80.6292 491.801 80.9125C491.78 81.2268 492.021 81.4838 492.337 81.4838H498.657C498.942 81.4838 499.191 81.2521 499.21 80.9688V80.9684C499.23 80.6544 498.989 80.3975 498.673 80.3975H492.353ZM520.718 78.4251L517.733 78.4259C517.694 78.4259 517.657 78.4403 517.629 78.467L517.068 78.9886C516.968 79.0824 517.035 79.2511 517.172 79.2511L521.204 79.25C521.337 79.25 521.406 79.0925 521.315 78.9953L520.83 78.4737C520.801 78.4429 520.761 78.4251 520.718 78.4251ZM521.919 74.5263C521.883 74.5263 521.847 74.5389 521.816 74.5675L521.258 75.0876C521.23 75.114 521.213 75.1492 521.21 75.1877L520.992 78.1715C520.989 78.2134 521.003 78.2542 521.032 78.2853L521.514 78.807C521.545 78.8407 521.585 78.8559 521.624 78.8559C521.699 78.8559 521.771 78.8018 521.777 78.715L522.072 74.6895C522.079 74.5934 522.001 74.5263 521.919 74.5263ZM521.257 73.8894L517.748 73.8905C517.669 73.8905 517.603 73.9517 517.597 74.031L517.559 74.5527C517.552 74.6405 517.622 74.7154 517.71 74.7154L521.203 74.7147C521.242 74.7147 521.279 74.7002 521.307 74.6739L521.596 74.4062C521.658 74.3495 521.661 74.2534 521.604 74.1923L521.369 73.9383C521.34 73.9072 521.299 73.8894 521.257 73.8894ZM522.268 69.7644C522.232 69.7644 522.196 69.777 522.165 69.8056L521.606 70.3258C521.578 70.3517 521.561 70.3873 521.558 70.4255L521.34 73.4096C521.337 73.4512 521.352 73.4923 521.38 73.5231L521.862 74.0447C521.894 74.0788 521.934 74.094 521.973 74.094C522.048 74.094 522.12 74.0395 522.126 73.9531L522.421 69.9276C522.428 69.8315 522.35 69.7644 522.268 69.7644ZM521.89 69.354L517.859 69.3548C517.726 69.3548 517.657 69.5123 517.747 69.6095L518.231 70.1311C518.26 70.1623 518.3 70.1797 518.343 70.1797L521.328 70.1789C521.366 70.1789 521.403 70.1645 521.432 70.1382L521.994 69.6165C522.095 69.5227 522.028 69.354 521.89 69.354Z" fill="#F2EAFF"/>
<path d="M518.344 70.1803C518.302 70.1803 518.261 70.1629 518.232 70.1317L517.748 69.6101C517.658 69.513 517.727 69.3554 517.86 69.3554L521.891 69.3546C522.029 69.3546 522.096 69.5233 521.995 69.6171L521.433 70.1388C521.405 70.1651 521.368 70.1796 521.329 70.1796L518.344 70.1803Z" fill="#F2EAFF"/>
<path d="M517.172 79.2515C517.034 79.2515 516.967 79.0828 517.068 78.989L517.629 78.4673C517.656 78.4406 517.694 78.4262 517.732 78.4262L520.718 78.4254C520.76 78.4254 520.8 78.4432 520.829 78.474L521.315 78.9956C521.406 79.0928 521.336 79.2504 521.203 79.2504L517.172 79.2515Z" fill="#F2EAFF"/>
<path d="M517.711 74.7153C517.623 74.7153 517.553 74.6404 517.559 74.5526L517.597 74.0309C517.603 73.9516 517.67 73.8904 517.749 73.8904L521.258 73.8893C521.3 73.8893 521.341 73.9071 521.37 73.9382L521.605 74.1922C521.662 74.2534 521.658 74.3494 521.597 74.4061L521.308 74.6738C521.28 74.7001 521.243 74.7146 521.204 74.7146L517.711 74.7153Z" fill="#F2EAFF"/>
<path d="M521.625 78.8562C521.586 78.8562 521.546 78.841 521.515 78.8073L521.032 78.2856C521.004 78.2545 520.989 78.2137 520.992 78.1718L521.21 75.188C521.213 75.1495 521.231 75.1142 521.258 75.0879L521.817 74.5678C521.848 74.5392 521.884 74.5266 521.92 74.5266C522.002 74.5266 522.08 74.5937 522.073 74.6897L521.778 78.7153C521.772 78.8021 521.699 78.8562 521.625 78.8562Z" fill="#F2EAFF"/>
<path d="M521.973 74.0938C521.934 74.0938 521.894 74.0785 521.862 74.0444L521.38 73.5228C521.352 73.492 521.337 73.4509 521.34 73.4094L521.558 70.4252C521.561 70.387 521.578 70.3514 521.606 70.3255L522.165 69.8053C522.196 69.7768 522.232 69.7642 522.268 69.7642C522.35 69.7642 522.428 69.8313 522.421 69.9273L522.126 73.9529C522.12 74.0392 522.048 74.0938 521.973 74.0938Z" fill="#F2EAFF"/>
<path d="M522.395 81.4835H516.075C515.759 81.4835 515.517 81.2266 515.538 80.9122C515.557 80.6289 515.805 80.3972 516.091 80.3972H522.411C522.726 80.3972 522.968 80.6542 522.947 80.9682V80.9685C522.928 81.2518 522.679 81.4835 522.395 81.4835Z" fill="#9373CF"/>
<path d="M514.483 81.4835H508.163C507.847 81.4835 507.606 81.2266 507.626 80.9122C507.645 80.6289 507.894 80.3972 508.179 80.3972H514.499C514.814 80.3972 515.056 80.6542 515.035 80.9682V80.9685C515.016 81.2518 514.768 81.4835 514.483 81.4835Z" fill="#9373CF"/>
<path d="M506.571 81.4835H500.251C499.935 81.4835 499.694 81.2266 499.715 80.9122C499.733 80.6289 499.982 80.3972 500.267 80.3972H506.587C506.903 80.3972 507.144 80.6542 507.124 80.9682V80.9685C507.105 81.2518 506.856 81.4835 506.571 81.4835Z" fill="#9373CF"/>
<path d="M498.658 81.4835H492.338C492.022 81.4835 491.78 81.2266 491.801 80.9122C491.82 80.6289 492.068 80.3972 492.354 80.3972H498.674C498.99 80.3972 499.231 80.6542 499.21 80.9682V80.9685C499.191 81.2518 498.943 81.4835 498.658 81.4835Z" fill="#9373CF"/>
<path d="M493.337 113.527H492.19C493.33 113.527 494.38 112.606 494.534 111.47L496.862 94.3133C496.875 94.2181 496.881 94.1243 496.881 94.0323C496.88 93.0294 496.121 92.2572 495.077 92.2572H478.999H496.223C497.363 92.2572 498.163 93.1777 498.009 94.3133L495.68 111.47C495.526 112.606 494.477 113.527 493.337 113.527Z" fill="#51328B"/>
<path d="M517.869 113.527H516.723C517.863 113.527 518.913 112.606 519.067 111.47L521.395 94.3133C521.408 94.2181 521.414 94.1243 521.414 94.0323C521.412 93.0294 520.654 92.2572 519.61 92.2572H503.532H520.756C521.896 92.2572 522.696 93.1777 522.541 94.3133L520.213 111.47C520.059 112.606 519.01 113.527 517.869 113.527Z" fill="#51328B"/>
<path d="M490.021 137.963H488.875C490.015 137.963 491.064 137.042 491.218 135.907L493.546 118.749C493.559 118.654 493.566 118.56 493.565 118.468C493.564 117.466 492.805 116.693 491.761 116.693H475.683H492.907C494.047 116.693 494.847 117.614 494.693 118.749L492.364 135.907C492.21 137.042 491.161 137.963 490.021 137.963Z" fill="#51328B"/>
<path d="M514.553 137.963H513.407C514.547 137.963 515.596 137.042 515.75 135.907L518.078 118.749C518.091 118.654 518.097 118.56 518.097 118.468C518.095 117.466 517.337 116.693 516.293 116.693H500.215H517.439C518.579 116.693 519.378 117.614 519.224 118.749L516.896 135.907C516.742 137.042 515.693 137.963 514.553 137.963Z" fill="#51328B"/>
<path d="M473.183 111.47L475.511 94.3133C475.665 93.1777 476.714 92.2572 477.855 92.2572H495.078C496.218 92.2572 497.018 93.1777 496.864 94.3133L494.535 111.47C494.381 112.606 493.332 113.527 492.192 113.527H474.968C473.828 113.527 473.029 112.606 473.183 111.47Z" fill="#9373CF"/>
<path d="M492.395 113.527H475.171C474.127 113.527 473.369 112.754 473.367 111.752C473.367 111.66 473.373 111.566 473.386 111.47L475.079 98.9944C475.112 98.9596 475.159 98.9054 475.209 98.8316C478.819 97.3261 477.068 98.6551 477.542 98.6551C477.871 98.6551 477.542 99.2981 477.542 99.2981C477.434 99.2354 475.218 99.0163 475.079 98.9944L475.714 94.3133C475.868 93.1777 476.917 92.2572 478.058 92.2572H495.281C496.326 92.2572 497.084 93.0294 497.086 94.0323C497.086 94.1243 497.08 94.2181 497.067 94.3133L494.738 111.47C494.584 112.606 493.535 113.527 492.395 113.527Z" fill="#E4D4FF"/>
<path d="M497.713 111.47L500.042 94.3133C500.196 93.1777 501.245 92.2572 502.385 92.2572H519.609C520.749 92.2572 521.548 93.1777 521.394 94.3133L519.066 111.47C518.912 112.606 517.863 113.527 516.723 113.527H499.499C498.358 113.527 497.559 112.606 497.713 111.47Z" fill="#9373CF"/>
<path d="M516.724 113.527H499.5C498.456 113.527 497.697 112.754 497.696 111.752C497.696 111.66 497.702 111.566 497.715 111.47L500.043 94.3133C500.197 93.1777 501.246 92.2572 502.386 92.2572H519.61C520.655 92.2572 521.413 93.0294 521.415 94.0323C521.415 94.1243 521.408 94.2181 521.395 94.3133L519.067 111.47C518.913 112.606 517.864 113.527 516.724 113.527Z" fill="#E4D4FF"/>
<path d="M469.867 135.907L472.195 118.749C472.349 117.614 473.398 116.693 474.538 116.693H491.762C492.903 116.693 493.702 117.614 493.548 118.749L491.219 135.907C491.065 137.042 490.016 137.963 488.876 137.963H471.652C470.512 137.963 469.713 137.042 469.867 135.907Z" fill="#9373CF"/>
<path d="M488.876 137.963H471.652C470.608 137.963 469.849 137.191 469.848 136.188C469.848 136.096 469.854 136.002 469.867 135.907L472.195 118.749C472.349 117.614 473.398 116.693 474.538 116.693H491.762C492.806 116.693 493.565 117.466 493.567 118.468C493.567 118.56 493.561 118.654 493.548 118.749L491.219 135.907C491.065 137.042 490.016 137.963 488.876 137.963Z" fill="#E4D4FF"/>
<path d="M494.396 135.907L496.725 118.749C496.879 117.614 497.928 116.693 499.068 116.693H516.292C517.432 116.693 518.231 117.614 518.077 118.749L515.749 135.907C515.595 137.042 514.546 137.963 513.406 137.963H496.182C495.042 137.963 494.242 137.042 494.396 135.907Z" fill="#9373CF"/>
<path d="M513.406 137.963H496.182C495.137 137.963 494.379 137.191 494.377 136.188C494.377 136.096 494.384 136.002 494.396 135.907L496.725 118.749C496.879 117.614 497.928 116.693 499.068 116.693H516.292C517.336 116.693 518.095 117.466 518.096 118.468C518.096 118.56 518.09 118.654 518.077 118.749L515.749 135.907C515.595 137.042 514.546 137.963 513.406 137.963Z" fill="#E4D4FF"/>
<path d="M484.055 110.03C482.918 110.03 482.113 109.104 482.267 107.971L483.646 97.8122C483.799 96.6795 484.855 95.753 485.992 95.753C487.129 95.753 487.934 96.6795 487.78 97.8122L486.401 107.971C486.248 109.104 485.192 110.03 484.055 110.03Z" fill="white"/>
<path d="M477.856 102.892C478.01 101.759 479.066 100.833 480.203 100.833H490.401C491.538 100.833 492.343 101.759 492.189 102.892C492.035 104.024 490.979 104.951 489.842 104.951H479.644C478.507 104.951 477.703 104.024 477.856 102.892Z" fill="white"/>
<path d="M475.954 132.377C475.259 131.576 475.436 130.266 476.349 129.465L484.535 122.281C485.448 121.48 486.764 121.48 487.459 122.281C488.154 123.082 487.976 124.393 487.064 125.193L478.878 132.377C477.965 133.177 476.649 133.177 475.954 132.377Z" fill="white"/>
<path d="M477.324 122.281C478.236 121.48 479.552 121.48 480.247 122.281L486.484 129.465C487.179 130.266 487.001 131.576 486.088 132.377C485.176 133.177 483.86 133.177 483.165 132.377L476.928 125.193C476.233 124.393 476.411 123.082 477.324 122.281Z" fill="white"/>
<path d="M502.388 102.892C502.542 101.759 503.598 100.833 504.735 100.833H514.933C516.07 100.833 516.874 101.759 516.721 102.892C516.567 104.024 515.511 104.951 514.374 104.951H504.176C503.039 104.951 502.234 104.024 502.388 102.892Z" fill="white"/>
<path d="M499.505 124.128C499.659 122.995 500.715 122.068 501.852 122.068H512.05C513.187 122.068 513.991 122.995 513.838 124.128C513.684 125.26 512.628 126.187 511.491 126.187H501.293C500.156 126.187 499.351 125.26 499.505 124.128Z" fill="white"/>
<path d="M498.637 130.529C498.791 129.397 499.847 128.47 500.984 128.47H511.183C512.32 128.47 513.124 129.397 512.97 130.529C512.816 131.662 511.761 132.589 510.624 132.589H500.425C499.288 132.589 498.484 131.662 498.637 130.529Z" fill="white"/>
<path d="M79.1174 39.6581C79.2501 34.5913 78.3584 29.5485 76.4932 24.8178C74.6281 20.0871 71.826 15.7611 68.247 12.0868C64.668 8.41244 60.3822 5.46176 55.6343 3.4032C50.8863 1.34464 45.7692 0.218512 40.5751 0.0891113L39.9649 23.3969C42.0213 23.4481 44.0473 23.894 45.9271 24.709C47.8069 25.524 49.5037 26.6922 50.9207 28.147C52.3376 29.6017 53.447 31.3144 54.1855 33.1874C54.9239 35.0603 55.2769 37.0568 55.2244 39.0629L79.1174 39.6581Z" fill="#D4819D"/>
<path d="M79.1174 39.6581C79.2501 34.5913 78.3584 29.5485 76.4932 24.8178C74.6281 20.0871 71.826 15.7611 68.247 12.0868C64.668 8.41244 60.3822 5.46176 55.6343 3.4032C50.8863 1.34464 45.7692 0.218512 40.5751 0.0891113L39.9649 23.3969C42.0213 23.4481 44.0473 23.894 45.9271 24.709C47.8069 25.524 49.5037 26.6922 50.9207 28.147C52.3376 29.6017 53.447 31.3144 54.1855 33.1874C54.9239 35.0603 55.2769 37.0568 55.2244 39.0629L79.1174 39.6581Z" fill="#D4819D"/>
<path d="M79.9871 39.6595C80.1198 34.5926 79.2281 29.5499 77.3629 24.8192C75.4978 20.0885 72.6957 15.7624 69.1167 12.0881C65.5378 8.41379 61.2519 5.46311 56.504 3.40455C51.756 1.34599 46.6389 0.219862 41.4448 0.0904613L40.859 22.4665C43.0409 22.5209 45.1904 22.9939 47.1848 23.8586C49.1793 24.7234 50.9796 25.9628 52.483 27.5063C53.9864 29.0497 55.1635 30.8669 55.9469 32.8541C56.7304 34.8413 57.105 36.9596 57.0493 39.088L79.9871 39.6595Z" fill="#E194AE"/>
<path d="M79.9871 39.6595C80.1198 34.5926 79.2281 29.5499 77.3629 24.8192C75.4978 20.0885 72.6957 15.7624 69.1167 12.0881C65.5378 8.41379 61.2519 5.46311 56.504 3.40455C51.756 1.34599 46.6389 0.219862 41.4448 0.0904613L40.859 22.4665C43.0409 22.5209 45.1904 22.9939 47.1848 23.8586C49.1793 24.7234 50.9796 25.9628 52.483 27.5063C53.9864 29.0497 55.1635 30.8669 55.9469 32.8541C56.7304 34.8413 57.105 36.9596 57.0493 39.088L79.9871 39.6595Z" fill="#E194AE"/>
<path d="M25.3214 32.6946L2.67107 24.0597C2.48312 23.5432 2.72836 22.7125 3.33252 21.6659C3.16271 22.0049 2.99736 22.3472 2.83682 22.6917C2.74571 22.8873 2.84655 23.1169 3.05546 23.1933L25.1761 31.2606C27.6703 26.61 32.3097 23.3306 37.6982 22.7444L37.7126 23.3471C32.3234 23.9328 27.7373 27.7143 25.3214 32.6946Z" fill="#FFACC8"/>
<path d="M25.1747 31.2605L3.05425 23.1927C2.84528 23.117 2.74448 22.887 2.83561 22.6919C2.99611 22.3467 3.16151 22.0048 3.33133 21.6657C11.6633 7.76728 19.6793 5.20238 21.4605 3.79091L23.242 20.5918C23.2581 20.5925 19.7505 15.9874 19.7666 15.9874C21.3666 18.8818 21.3597 15.3692 21.3666 14.5975L21.4605 3.79091C26.4234 1.40688 31.9374 0.0599842 37.7092 -6.10352e-05H37.7135C37.9111 -6.10352e-05 38.0703 0.15687 38.0675 0.346556L37.6993 22.7438H37.6971C32.3085 23.3306 27.6692 26.6098 25.1747 31.2605Z" fill="#FFBFD5"/>
<path d="M57.3732 41.349C57.0397 41.3402 56.7414 41.5441 56.6416 41.8502C56.3623 42.7066 55.8523 44.3493 55.7685 44.5572C55.362 45.5677 54.8863 46.5539 54.3283 47.4962C53.2946 49.2433 51.9724 50.8451 50.3404 52.1132C46.2055 55.3271 40.262 55.9245 35.3043 54.3335C35.1635 54.2883 35.0227 54.2395 34.8834 54.1894C34.6253 54.0967 34.3353 54.1998 34.2028 54.4316L21.7017 76.3159C27.7721 79.238 33.4843 80.0022 40.651 79.5613C61.4738 78.28 77.8244 62.051 79.6392 41.9255L57.3732 41.349Z" fill="#FFACC8"/>
<path d="M57.3743 41.3479C56.019 49.3343 49.8698 55.5743 41.5152 55.8467C39.1648 55.9233 36.3604 55.3991 34.2985 54.5977C34.0833 54.514 33.8375 54.5985 33.72 54.791L20.8709 76.0097C26.9413 78.9318 33.7963 80.3622 40.9628 79.9212C61.7851 78.6403 78.1364 61.9181 79.9511 41.7926L57.3743 41.3479Z" fill="#FFD4E3"/>
<path d="M20.0697 74.8321L32.3894 52.6024C32.4769 52.4453 32.44 52.2481 32.3025 52.1321C28.5097 48.9193 25.4775 44.611 25.4775 39.0237C25.4775 37.6459 24.8703 35.6406 25.1492 34.348L1.9806 26.0131C0.694378 30.2219 0 34.7011 0 39.3426C0 54.3465 7.92448 67.5432 18.8053 75.1285C19.2307 75.425 19.8181 75.2871 20.0697 74.8321Z" fill="#FF99BB"/>
<path d="M18.8384 73.1357L31.605 52.1873C31.7672 51.9213 31.7114 51.5814 31.4699 51.3777C27.8083 48.2861 25.4781 43.6382 25.4781 38.3943C25.4781 37.0797 25.6259 35.7977 25.9042 34.5643L2.32738 26.1046C2.13944 26.0367 1.93023 26.1355 1.87297 26.3198C0.655751 30.2365 0 34.3943 0 38.6978C0 53.3628 7.54828 65.9907 18.8384 73.1357Z" fill="#FFACC8"/>
<path d="M25.6232 294.661C26.0879 296.083 26.5521 297.506 27.016 298.928C32.0187 299.04 35.7 301.741 36.9827 305.457C38.2706 309.205 37.0537 311.873 32.5471 314.416C29.3513 316.306 28.1088 317.384 28.5434 318.771C28.9085 319.942 30.1889 320.996 33.0062 320.579C34.5349 320.352 35.7147 319.923 36.6329 319.472C37.8568 318.871 39.5247 319.419 40.3232 320.681C41.0945 321.903 40.7521 323.347 39.5345 323.905C38.5393 324.362 37.3025 324.773 35.7353 325.083C36.1322 326.311 36.529 327.537 36.9255 328.766C35.4862 328.983 34.0445 329.195 32.6005 329.399C32.1849 328.072 31.769 326.746 31.3528 325.42C26.3796 325.198 22.7972 322.614 21.7056 318.924C20.4978 314.849 23.0087 312.382 27.0605 310.229C29.8623 308.733 30.8716 307.512 30.3516 305.925C29.8012 304.252 27.8771 303.588 25.4997 303.929C23.8663 304.164 22.4205 304.695 21.2042 305.338C20.0095 305.971 18.3269 305.361 17.5687 304.039C17.5411 303.99 17.5133 303.943 17.4856 303.894C16.7972 302.693 17.1108 301.335 18.1932 300.787C19.491 300.127 21.1297 299.557 22.8774 299.226C22.4577 297.899 22.0377 296.573 21.6172 295.247C22.9546 295.059 24.2901 294.863 25.6232 294.661Z" fill="#3C8F7C"/>
<path d="M88.8048 296.464C78.2475 300.203 67.4687 303.459 56.4946 306.223C57.3424 308.267 58.1901 310.308 59.0381 312.351C70.1658 309.548 81.0956 306.247 91.8019 302.454C90.8022 300.458 89.8045 298.46 88.8048 296.464Z" fill="#50BFA5"/>
<path d="M10.9531 332.897V348.781C10.9531 351.349 39.6145 353.43 74.9707 353.43C110.326 353.43 138.987 351.349 138.987 348.781V332.897H10.9531Z" fill="#FFF7D4"/>
<path d="M57.2811 353.251V332.897H10.9531V348.781C10.9531 350.902 30.529 352.693 57.2811 353.251Z" fill="#FFCB77"/>
<path d="M59.4359 353.293C64.4087 353.383 69.6129 353.43 74.97 353.43C82.9517 353.43 90.5923 353.324 97.6391 353.13V332.897H59.4359V353.293Z" fill="#FFCB77"/>
<path d="M100.206 353.056C123.014 352.345 138.987 350.699 138.987 348.781V332.897H100.206V353.056Z" fill="#FFCB77"/>
<path d="M138.987 332.729C138.987 335.297 110.326 337.38 74.9708 337.38C39.6145 337.38 10.9531 335.297 10.9531 332.729C10.9531 330.163 39.6145 328.08 74.9708 328.08C110.326 328.08 138.987 330.163 138.987 332.729Z" fill="#FFF7D4"/>
<path d="M127.687 332.729C127.687 334.51 104.085 335.954 74.9712 335.954C45.8561 335.954 22.254 334.51 22.254 332.729C22.254 330.95 45.8561 329.507 74.9712 329.507C104.085 329.507 127.687 330.95 127.687 332.729Z" fill="white" fill-opacity="0.5"/>
<path d="M0 316.091V331.975C0 334.541 28.6614 336.623 64.017 336.623C99.3721 336.623 128.033 334.541 128.033 331.975V316.091H0Z" fill="#FFF7D4"/>
<path d="M46.3279 336.443V316.091H0V331.975C0 334.096 19.5759 335.887 46.3279 336.443Z" fill="#FFCB77"/>
<path d="M48.4839 336.486C53.457 336.574 58.6598 336.623 64.0169 336.623C71.9986 336.623 79.6392 336.518 86.6859 336.324V316.091H48.4839V336.486Z" fill="#FFCB77"/>
<path d="M89.2524 336.247C112.061 335.536 128.034 333.89 128.034 331.974V316.091H89.2524V336.247Z" fill="#FFCB77"/>
<path d="M128.033 315.922C128.033 318.491 99.3721 320.571 64.017 320.571C28.6614 320.571 0 318.491 0 315.922C0 313.354 28.6614 311.274 64.017 311.274C99.3721 311.274 128.033 313.354 128.033 315.922Z" fill="#FFF7D4"/>
<path d="M116.732 315.923C116.732 317.703 93.1304 319.145 64.0164 319.145C34.9017 319.145 11.2998 317.703 11.2998 315.923C11.2998 314.142 34.9017 312.698 64.0164 312.698C93.1304 312.698 116.732 314.142 116.732 315.923Z" fill="white" fill-opacity="0.5"/>
<path d="M7.29724 298.838V314.719C7.29724 317.288 35.9586 319.368 71.3145 319.368C106.67 319.368 135.331 317.288 135.331 314.719V298.838H7.29724Z" fill="#FFF7D4"/>
<path d="M53.6252 319.19V298.838H7.29724V314.72C7.29724 316.841 26.8732 318.632 53.6252 319.19Z" fill="#FFCB77"/>
<path d="M55.7822 319.231C60.7561 319.321 65.9583 319.368 71.3153 319.368C79.297 319.368 86.9376 319.262 93.9843 319.068V298.838H55.7822V319.231Z" fill="#FFCB77"/>
<path d="M96.5497 318.994C119.358 318.283 135.331 316.637 135.331 314.72V298.838H96.5497V318.994Z" fill="#FFCB77"/>
<path d="M135.331 298.667C135.331 301.236 106.67 303.318 71.3145 303.318C35.9586 303.318 7.29724 301.236 7.29724 298.667C7.29724 296.101 35.9586 294.019 71.3145 294.019C106.67 294.019 135.331 296.101 135.331 298.667Z" fill="#FFF7D4"/>
<path d="M124.031 298.668C124.031 300.449 100.429 301.892 71.315 301.892C42.2 301.892 18.5981 300.449 18.5981 298.668C18.5981 296.889 42.2 295.445 71.315 295.445C100.429 295.445 124.031 296.889 124.031 298.668Z" fill="white" fill-opacity="0.5"/>
<path d="M0 281.82V297.701C0 300.27 28.6614 302.352 64.017 302.352C99.3721 302.352 128.033 300.27 128.033 297.701V281.82H0Z" fill="#FFF7D4"/>
<path d="M46.3279 302.172V281.82H0V297.702C0 299.825 19.5759 301.614 46.3279 302.172Z" fill="#FFCB77"/>
<path d="M48.4839 302.213C53.457 302.303 58.6598 302.352 64.0169 302.352C71.9986 302.352 79.6392 302.244 86.6859 302.05V281.82H48.4839V302.213Z" fill="#FFCB77"/>
<path d="M89.2524 301.976C112.061 301.265 128.034 299.619 128.034 297.701V281.82H89.2524V301.976Z" fill="#FFCB77"/>
<path d="M128.033 281.651C128.033 284.218 99.3721 286.3 64.017 286.3C28.6614 286.3 0 284.218 0 281.651C0 279.083 28.6614 277 64.017 277C99.3721 277 128.033 279.083 128.033 281.651Z" fill="#FFF7D4"/>
<path d="M116.732 281.651C116.732 283.43 93.1304 284.874 64.0164 284.874C34.9017 284.874 11.2998 283.43 11.2998 281.651C11.2998 279.871 34.9017 278.427 64.0164 278.427C93.1304 278.427 116.732 279.871 116.732 281.651Z" fill="white" fill-opacity="0.5"/>
<defs>
<linearGradient id="paint0_linear_1_19" x1="110.709" y1="39" x2="428.362" y2="72.1455" gradientUnits="userSpaceOnUse">
<stop stop-color="#4313A1"/>
<stop offset="0.9999" stop-color="#BD4238"/>
<stop offset="1" stop-color="#FF5C00"/>
</linearGradient>
</defs>
</svg>
