<svg width="177" height="141" viewBox="0 0 177 141" fill="none" xmlns="http://www.w3.org/2000/svg">
<path d="M152.45 33.9243C157.493 33.9243 161.58 29.8321 161.58 24.7787C161.58 19.7252 157.493 15.6283 152.45 15.6283C147.408 15.6283 143.32 19.7252 143.32 24.7787C143.32 29.8321 147.408 33.9243 152.45 33.9243ZM152.45 5.19016C163.247 5.19016 171.995 13.9579 171.995 24.7787C171.995 35.5953 163.247 44.3677 152.45 44.3677C141.658 44.3677 132.905 35.5953 132.905 24.7787C132.905 13.9579 141.658 5.19016 152.45 5.19016Z" fill="#FFE0AD"/>
<path d="M21.2619 64.1679C24.3198 64.1679 26.7989 61.686 26.7989 58.6213C26.7989 55.5565 24.3198 53.0718 21.2619 53.0718C18.2039 53.0718 15.7246 55.5565 15.7246 58.6213C15.7246 61.686 18.2039 64.1679 21.2619 64.1679ZM21.2619 46.7413C27.8098 46.7413 33.1152 52.0587 33.1152 58.6213C33.1152 65.1812 27.8098 70.5015 21.2619 70.5015C14.7167 70.5015 9.40828 65.1812 9.40828 58.6213C9.40828 52.0587 14.7167 46.7413 21.2619 46.7413Z" fill="#FFE0AD"/>
<path d="M148.693 6.00244H156.209L155.793 0.669946H149.108L148.693 6.00244Z" fill="#FFE0AD"/>
<path d="M18.983 47.2339H23.5415L23.2895 43.9999H19.2351L18.983 47.2339Z" fill="#FFE0AD"/>
<path d="M162.999 8.54028L168.314 13.8667L171.782 9.80201L167.055 5.06399L162.999 8.54028Z" fill="#FFE0AD"/>
<path d="M27.6595 48.7731L30.8827 52.0034L32.9863 49.5383L30.1193 46.6648L27.6595 48.7731Z" fill="#FFE0AD"/>
<path d="M171.324 20.4738V28.0068L176.645 27.5902V20.89L171.324 20.4738Z" fill="#FFE0AD"/>
<path d="M32.7083 56.0105V60.5791L35.9351 60.3264V56.2629L32.7083 56.0105Z" fill="#FFE0AD"/>
<path d="M168.792 34.8116L163.477 40.138L167.533 43.6143L172.26 38.8767L168.792 34.8116Z" fill="#FFE0AD"/>
<path d="M31.1724 64.7058L27.9493 67.9362L30.409 70.0444L33.2759 67.1712L31.1724 64.7058Z" fill="#FFE0AD"/>
<path d="M156.885 43.1553H149.369L149.784 48.4873H156.469L156.885 43.1553Z" fill="#FFE0AD"/>
<path d="M23.9512 69.7663H19.3929L19.6449 73H23.6991L23.9512 69.7663Z" fill="#FFE0AD"/>
<path d="M142.579 40.617L137.264 35.2906L133.796 39.3557L138.523 44.0933L142.579 40.617Z" fill="#FFE0AD"/>
<path d="M15.2754 68.2267L12.0521 64.9964L9.94862 67.4618L12.8157 70.335L15.2754 68.2267Z" fill="#FFE0AD"/>
<path d="M134.254 28.6841V21.151L128.933 21.5677V28.2674L134.254 28.6841Z" fill="#FFE0AD"/>
<path d="M10.2261 60.9897V56.4212L6.99925 56.6739V60.737L10.2261 60.9897Z" fill="#FFE0AD"/>
<path d="M136.786 14.3462L142.101 9.01977L138.045 5.54348L133.318 10.2815L136.786 14.3462Z" fill="#FFE0AD"/>
<path d="M11.7615 52.2944L14.9849 49.0641L12.525 46.9558L9.65834 49.8293L11.7615 52.2944Z" fill="#FFE0AD"/>
<path d="M95.1271 105.969C107.105 105.969 116.794 96.2532 116.794 84.265C116.794 72.2714 107.105 62.5557 95.1271 62.5557C83.1711 62.5557 73.4825 72.2714 73.4825 84.265C73.4825 96.2532 83.1711 105.969 95.1271 105.969ZM95.1271 56.6879C110.304 56.6879 122.643 69.0603 122.643 84.265C122.643 99.4698 110.304 111.837 95.1271 111.837C79.9671 111.837 67.6277 99.4698 67.6277 84.265C67.6277 69.0603 79.9671 56.6879 95.1271 56.6879ZM95.1271 114.483C111.755 114.483 125.288 100.93 125.288 84.265C125.288 67.6057 111.755 54.0421 95.1271 54.0421C78.5103 54.0421 64.9878 67.6057 64.9878 84.265C64.9878 100.93 78.5103 114.483 95.1271 114.483ZM95.1271 37.7785C120.748 37.7785 141.511 58.5926 141.511 84.265C141.511 109.933 120.748 130.741 95.1271 130.741C69.5282 130.741 48.7598 109.933 48.7598 84.265C48.7598 58.5926 69.5282 37.7785 95.1271 37.7785ZM95.1271 105.969C107.105 105.969 116.794 96.2532 116.794 84.265C116.794 72.2714 107.105 62.5557 95.1271 62.5557C83.1711 62.5557 73.4825 72.2714 73.4825 84.265C73.4825 96.2532 83.1711 105.969 95.1271 105.969ZM95.1271 56.6879C110.304 56.6879 122.643 69.0603 122.643 84.265C122.643 99.4698 110.304 111.837 95.1271 111.837C79.9671 111.837 67.6277 99.4698 67.6277 84.265C67.6277 69.0603 79.9671 56.6879 95.1271 56.6879ZM95.1271 105.969C107.105 105.969 116.794 96.2532 116.794 84.265C116.794 72.2714 107.105 62.5557 95.1271 62.5557C83.1711 62.5557 73.4825 72.2714 73.4825 84.265C73.4825 96.2532 83.1711 105.969 95.1271 105.969ZM95.1271 56.6879C110.304 56.6879 122.643 69.0603 122.643 84.265C122.643 99.4698 110.304 111.837 95.1271 111.837C79.9671 111.837 67.6277 99.4698 67.6277 84.265C67.6277 69.0603 79.9671 56.6879 95.1271 56.6879Z" fill="#FFCB77"/>
<path d="M89.6908 38.623H100.309L99.2518 28H90.7478L89.6908 38.623Z" fill="#FFCB77"/>
<path d="M113.19 42.008L122.386 47.3292L126.77 37.5998L119.405 33.3386L113.19 42.008Z" fill="#FFCB77"/>
<path d="M131.851 56.7153L137.161 65.9321L145.811 59.7031L141.559 52.3219L131.851 56.7153Z" fill="#FFCB77"/>
<path d="M140.675 78.8039V89.4461L151.274 88.3867V79.8638L140.675 78.8039Z" fill="#FFCB77"/>
<path d="M137.298 102.355L131.988 111.572L141.696 115.965L145.948 108.584L137.298 102.355Z" fill="#FFCB77"/>
<path d="M122.622 121.058L113.426 126.38L119.642 135.049L127.006 130.788L122.622 121.058Z" fill="#FFCB77"/>
<path d="M100.583 129.903H89.9642L91.0218 140.525H99.5258L100.583 129.903Z" fill="#FFCB77"/>
<path d="M77.0844 126.518L67.8881 121.196L63.5044 130.926L70.8686 135.187L77.0844 126.518Z" fill="#FFCB77"/>
<path d="M58.4222 111.81L53.1124 102.594L44.4627 108.822L48.7144 116.204L58.4222 111.81Z" fill="#FFCB77"/>
<path d="M49.5985 89.7212V79.079L38.9991 80.1384V88.6618L49.5985 89.7212Z" fill="#FFCB77"/>
<path d="M52.9757 66.1693L58.285 56.9531L48.5772 52.5591L44.3255 59.9403L52.9757 66.1693Z" fill="#FFCB77"/>
<path d="M67.6503 47.4664L76.8466 42.1453L70.6314 33.4759L63.2666 37.737L67.6503 47.4664Z" fill="#FFCB77"/>
<path d="M170.381 4.27191L170.653 3.89349C170.166 3.54213 169.875 3.36994 169.863 3.36294L169.627 3.76517C169.63 3.76704 169.914 3.93501 170.381 4.27191Z" fill="#4313A1"/>
<path d="M0.85838 18.451L1.03717 18.0204C0.750367 17.9004 0.459838 17.7843 0.164188 17.6713L-0.00109863 18.1076C0.289895 18.2182 0.575766 18.333 0.85838 18.451Z" fill="#4313A1"/>
</svg>
