<svg width="40" height="40" viewBox="0 0 40 40" fill="none" xmlns="http://www.w3.org/2000/svg">
<path d="M19.2656 0.476562C19.0078 0.515625 18.5859 0.648438 18.3125 0.773438C17.1562 1.3125 16.6094 2.35156 16.6016 3.98438C16.6016 4.66406 16.6797 5.16406 17 6.75781C17.2344 7.91406 18.0156 9.03125 18.9141 9.5C19.2812 9.69531 19.4219 9.72656 20 9.72656C20.7187 9.72656 21.0469 9.60938 21.6484 9.13281C22.2891 8.625 22.9531 7.34375 23.0859 6.35938C23.1094 6.14844 23.1953 5.71094 23.2656 5.39062C23.4219 4.67188 23.4297 3.39062 23.289 2.8125C22.9609 1.48438 22.0469 0.671875 20.6641 0.46875C20.0391 0.382812 19.9062 0.382812 19.2656 0.476562Z" fill="#FFDBA0"/>
<path d="M18.3595 9.96875C17.047 10.125 16.6407 10.1875 15.8048 10.3594C14.0157 10.7188 12.9298 11.2109 12.2423 11.9531C11.547 12.7031 11.5626 12.5469 11.5626 17.5469V21.875H12.9298H14.297V18.6328C14.297 15.0547 14.3048 15.0156 14.7735 14.8516C15.0626 14.75 15.4845 14.8984 15.6173 15.1406C15.672 15.25 15.7032 16.3828 15.7032 18.5859V21.875H20.0001H24.297V18.5859C24.297 16.4844 24.3282 15.25 24.3751 15.1484C24.422 15.0703 24.5626 14.9453 24.6954 14.8828C24.8907 14.7812 24.9845 14.7734 25.2032 14.8438C25.7032 15.0078 25.7032 15.0156 25.7032 18.6328V21.875H27.0704H28.4454L28.422 17.3984L28.3985 12.9297L28.1876 12.5391C27.3595 10.9531 24.5157 10.0312 20.3126 9.96094C19.3907 9.94531 18.5079 9.95312 18.3595 9.96875Z" fill="#FFDBA0"/>
<path d="M1.44521 11.75C1.03115 11.9375 0.593651 12.375 0.453026 12.7266C0.413964 12.8438 0.288964 15.5156 0.179589 18.9453C-0.0391612 25.6562 -0.0391612 25.6484 0.437401 26.6406C0.710839 27.1875 0.913964 27.4219 3.83584 30.3516L6.95303 33.4844V36.5469V39.6094H10.4687H13.9843V34.0781C13.9843 28.1172 13.9687 27.9297 13.5624 27.1328C13.2733 26.5469 13.0858 26.3594 11.3749 24.8906C10.5077 24.1484 9.39834 23.1094 8.89834 22.5938C7.90615 21.5469 7.5624 21.3359 6.90615 21.3281C5.90615 21.3281 5.1874 22.2109 5.57803 22.9531C5.64053 23.0703 6.78896 24.25 8.1249 25.5859C9.46084 26.9141 10.6093 28.1094 10.6796 28.2344C10.9062 28.6719 10.6327 29.2969 10.2108 29.2969C9.98428 29.2969 9.70303 29.0391 7.3749 26.6953C5.75771 25.0781 4.70303 23.9531 4.5624 23.7109L4.33584 23.3203L4.29678 18.5156C4.2499 13.4062 4.2499 13.3984 3.85928 12.6406C3.35928 11.6797 2.3749 11.3125 1.44521 11.75Z" fill="#FFDBA0"/>
<path d="M37.0703 11.6953C36.5312 11.9766 36.1406 12.5 35.8906 13.2812C35.7656 13.6719 35.7422 14.1797 35.7031 18.5156L35.6641 23.3203L35.4375 23.7109C35.2969 23.9531 34.2422 25.0781 32.625 26.6953C30.2969 29.0391 30.0156 29.2969 29.7891 29.2969C29.3672 29.2969 29.0938 28.6719 29.3203 28.2344C29.3906 28.1094 30.5391 26.9141 31.875 25.5859C33.2109 24.25 34.3594 23.0703 34.4219 22.9531C34.8125 22.2109 34.0938 21.3281 33.0938 21.3281C32.4375 21.3359 32.0938 21.5469 31.1094 22.5859C30.6172 23.1016 29.4844 24.1484 28.5859 24.9219C26.9219 26.3672 26.7031 26.5859 26.4062 27.1797C26.0312 27.9297 26.0156 28.1797 26.0156 34.0781V39.6094H29.5312H33.0469V36.5469V33.4844L36.1641 30.3516C39.0859 27.4219 39.2891 27.1875 39.5625 26.6406C40.0391 25.6484 40.0391 25.6562 39.8203 18.9453C39.7109 15.5156 39.5859 12.8438 39.5469 12.7266C39.4062 12.375 38.9688 11.9375 38.5547 11.75C38.0938 11.5312 37.4219 11.5078 37.0703 11.6953Z" fill="#FFDBA0"/>
</svg>
