<svg width="568" height="362" viewBox="0 0 568 362" fill="none" xmlns="http://www.w3.org/2000/svg">
<path d="M46.6361 361.349C46.6361 361.349 -21.8143 294.675 21.7336 216.234C65.281 137.79 123.769 177.238 120.939 85.9376C118.108 -5.36478 255.451 -13.2073 299.167 13.2662C342.883 39.7397 342.621 71.6238 432.869 61.0746C523.117 50.5253 540.357 138.465 516.88 183.284C483.565 246.874 609.336 236.385 530.087 361.349H46.6361Z" fill="white"/>
<path d="M224.01 162.351V252.24H384.098V162.351H224.01Z" fill="#E4D4FF"/>
<path d="M229.216 162.351V252.24H389.304V162.351H229.216Z" fill="#F6F1FF"/>
<path d="M272.998 176.394C257.012 176.394 244.052 189.32 244.052 205.264C244.052 221.208 257.012 234.134 272.998 234.134C288.984 234.134 301.943 221.208 301.943 205.264C301.943 189.32 288.984 176.394 272.998 176.394Z" fill="white"/>
<path d="M371.308 189.136H323.356C321.617 189.136 320.195 190.554 320.195 192.289C320.195 194.021 321.617 195.439 323.356 195.439H371.308C373.045 195.439 374.467 194.021 374.467 192.289C374.467 190.554 373.045 189.136 371.308 189.136Z" fill="white"/>
<path d="M371.308 202.113H323.356C321.617 202.113 320.195 203.531 320.195 205.264C320.195 206.997 321.617 208.414 323.356 208.414H371.308C373.045 208.414 374.467 206.997 374.467 205.264C374.467 203.531 373.045 202.113 371.308 202.113Z" fill="white"/>
<path d="M371.308 215.088H323.356C321.617 215.088 320.195 216.508 320.195 218.241C320.195 219.974 321.617 221.391 323.356 221.391H371.308C373.045 221.391 374.467 219.974 374.467 218.241C374.467 216.508 373.045 215.088 371.308 215.088Z" fill="white"/>
<path d="M246.495 204.846H272.998V178.413C258.361 178.413 246.495 190.248 246.495 204.846Z" fill="#DAC5FF"/>
<path d="M299.499 205.696H246.495C246.495 220.294 258.361 232.128 272.997 232.128C272.997 232.128 272.997 232.128 272.997 232.128C287.633 232.128 299.499 220.294 299.499 205.696Z" fill="#ECE1FF"/>
<path d="M212.734 268.336V360.264H372.821V268.336H212.734Z" fill="#E4D4FF"/>
<path d="M217.941 268.336V360.264H378.029V268.336H217.941Z" fill="#F6F1FF"/>
<path d="M232.776 311.462C232.776 295.518 245.735 282.592 261.722 282.592C277.708 282.592 290.667 295.518 290.667 311.462C290.667 327.406 277.708 340.331 261.722 340.331C245.735 340.331 232.776 327.406 232.776 311.462Z" fill="white"/>
<path d="M312.078 301.636H360.029C361.767 301.636 363.19 300.217 363.19 298.484C363.19 296.751 361.767 295.333 360.029 295.333H312.078C310.34 295.333 308.919 296.751 308.919 298.484C308.919 300.217 310.34 301.636 312.078 301.636Z" fill="white"/>
<path d="M360.029 308.309H312.078C310.34 308.309 308.919 309.729 308.919 311.462C308.919 313.194 310.34 314.612 312.078 314.612H360.029C361.767 314.612 363.19 313.194 363.19 311.462C363.19 309.729 361.767 308.309 360.029 308.309Z" fill="white"/>
<path d="M360.029 321.286H312.078C310.34 321.286 308.919 322.703 308.919 324.436C308.919 326.169 310.34 327.589 312.078 327.589H360.029C361.767 327.589 363.19 326.169 363.19 324.436C363.19 322.703 361.767 321.286 360.029 321.286Z" fill="white"/>
<path d="M261.721 311.928L235.221 311.593C235.219 311.705 235.219 311.819 235.219 311.928C235.219 326.526 247.085 338.361 261.721 338.361C266.954 338.361 271.831 336.847 275.94 334.236L261.721 311.928Z" fill="#FFD3C2"/>
<path d="M212.735 64.319V147.621H372.824V64.319H212.735Z" fill="#E4D4FF"/>
<path d="M217.94 64.319V147.621H378.027V64.319H217.94Z" fill="#F6F1FF"/>
<path d="M232.776 107.194C232.776 91.2488 245.735 78.3243 261.721 78.3243C277.708 78.3243 290.667 91.2488 290.667 107.194C290.667 123.138 277.708 136.062 261.721 136.062C245.735 136.062 232.776 123.138 232.776 107.194Z" fill="white"/>
<path d="M261.722 80.7626C247.085 80.7626 235.219 92.5957 235.219 107.193C235.219 117.194 240.789 125.897 249.002 130.386C253.248 122.543 261.722 107.193 261.722 107.193L274.27 130.477C282.577 126.014 288.222 117.262 288.222 107.193C288.222 92.5957 276.358 80.7626 261.722 80.7626Z" fill="#FCB497"/>
<path d="M360.029 91.0659H312.078C310.34 91.0659 308.919 92.4834 308.919 94.2163C308.919 95.9513 310.34 97.3689 312.078 97.3689H360.029C361.767 97.3689 363.19 95.9513 363.19 94.2163C363.19 92.4834 361.767 91.0659 360.029 91.0659Z" fill="white"/>
<path d="M360.029 104.043H312.078C310.34 104.043 308.919 105.46 308.919 107.193C308.919 108.926 310.34 110.344 312.078 110.344H360.029C361.767 110.344 363.19 108.926 363.19 107.193C363.19 105.46 361.767 104.043 360.029 104.043Z" fill="white"/>
<path d="M360.029 117.018H312.078C310.34 117.018 308.919 118.435 308.919 120.168C308.919 121.903 310.34 123.321 312.078 123.321H360.029C361.767 123.321 363.19 121.903 363.19 120.168C363.19 118.435 361.767 117.018 360.029 117.018Z" fill="white"/>
<path d="M262.698 94.5697H248.315C247.497 94.5697 246.827 95.2383 246.827 96.0544C246.827 96.8705 247.497 97.5367 248.315 97.5367H262.698C263.516 97.5367 264.186 96.8705 264.186 96.0544C264.186 95.2383 263.516 94.5697 262.698 94.5697Z" fill="#FCB497"/>
<path d="M251.591 99.9693H248.315C247.497 99.9693 246.827 100.638 246.827 101.454C246.827 102.27 247.497 102.939 248.315 102.939H251.591C252.409 102.939 253.078 102.27 253.078 101.454C253.078 100.638 252.409 99.9693 251.591 99.9693Z" fill="#FCB497"/>
<path d="M420.404 224.837C418.191 228.959 415.434 233.123 412.605 236.509V236.511C409.643 240.059 406.613 242.755 404.057 243.669L404.037 243.675C403.902 243.721 403.77 243.764 403.638 243.8L403.618 243.804L403.615 243.806C403.098 243.955 402.602 244.02 402.131 243.998C393.738 243.62 384.889 225.549 384.889 225.549C384.889 225.549 385.121 223.408 386.754 221.894C388.177 220.574 389.271 220.229 389.271 220.229C389.271 220.229 398.312 229.547 400.522 230.217C401.91 230.637 403.738 224.131 406.355 215.96C408.975 207.789 418.166 205.775 418.166 205.775C418.166 205.775 427.471 211.685 420.404 224.837Z" fill="#E4D4FF"/>
<path d="M567.343 362H0.654824C0.294559 362 0 361.705 0 361.347V361.098C0 360.74 0.294559 360.445 0.654824 360.445H567.343C567.705 360.445 568 360.74 568 361.098V361.347C568 361.705 567.705 362 567.343 362Z" fill="#F6F1FF"/>
<path d="M412.606 236.51V236.512C409.643 240.06 406.613 242.756 404.056 243.669L404.036 243.676L403.639 243.801L403.617 243.807L403.62 243.805C403.712 243.744 406.448 242.319 406.876 239.674C407.318 236.973 404.467 234.762 411.626 230.583C415.798 228.147 412.606 236.51 412.606 236.51Z" fill="#ECE3FC"/>
<path d="M406.056 360.445H425.729C427.136 359.485 425.347 350.106 425.347 350.106C425.347 350.106 419.98 348.061 419.05 352.219C418.119 356.374 412.212 357.696 409.084 358.203C406.944 358.553 406.268 359.732 406.056 360.445Z" fill="#24406D"/>
<path d="M436.054 263.232C436.054 263.232 435.434 274.75 434.657 288.096C434.099 297.665 433.462 308.176 432.915 316.047C432.845 317.091 432.772 318.09 432.702 319.034C432.685 319.326 432.661 319.617 432.641 319.907C431.232 337.557 426.522 353.02 426.522 353.02C420.991 354.189 418.492 352.05 418.492 352.05C418.492 352.05 414.682 307.225 413.271 289.147C412.23 275.84 411.345 256.464 411.345 256.464L436.054 263.232Z" fill="#2B478B"/>
<path d="M434.659 288.094C434.103 297.663 433.468 308.173 432.92 316.045C429.304 307.485 421.915 274.12 421.915 274.12L434.659 288.094Z" fill="#112963"/>
<path d="M435.23 360.445H454.907C456.314 359.486 454.526 350.107 454.526 350.107C454.526 350.107 449.155 348.062 448.226 352.219C447.297 356.375 441.39 357.696 438.261 358.203C436.12 358.553 435.447 359.733 435.23 360.445Z" fill="#24406D"/>
<path d="M416.691 260.941C416.691 260.941 430.737 296.036 435.231 309.338C438.428 318.813 447.452 352.055 447.452 352.055C447.452 352.055 451.378 353.255 454.673 350.939C454.673 350.939 458.029 316.976 451.249 307.401C447.651 302.319 450.357 254.583 435.769 254.175C421.184 253.767 416.691 260.941 416.691 260.941Z" fill="#2B478B"/>
<path d="M445.458 249.653C445.398 254.643 445.345 258.306 445.357 259.233C445.396 262.252 443.47 262.934 441.488 263.395C441.488 263.395 439.658 263.79 437.345 264.183C435.083 264.563 432.349 264.939 430.421 264.926C420.555 264.847 412.302 261.933 412.302 261.933C410.445 261.933 409.601 259.053 409.294 255.029C409.088 252.307 409.926 225.154 410.03 218.375C410.102 213.511 412.764 209.018 413.509 208.36C420.394 202.247 440.722 203.018 444.379 207.235C445.285 208.277 445.548 218.329 445.577 229.342C445.598 236.431 445.527 243.916 445.458 249.653Z" fill="#E4D4FF"/>
<path d="M433.252 204.814C430.659 207.637 421.943 207.217 422.202 204.755C422.237 204.451 422.292 202.649 422.321 202.369C422.344 202.144 422.365 201.923 422.382 201.718C422.443 201.111 422.49 200.573 422.528 200.11C422.647 198.76 422.685 198.028 422.685 198.028H422.694C422.941 197.956 428.546 196.359 431.334 195.697C432.268 195.476 432.891 195.358 432.879 195.441C432.024 201.725 434.104 203.888 433.252 204.814Z" fill="#FFD2E0"/>
<path d="M431.626 197.553C431.626 197.553 429.286 199.938 422.527 200.111C422.645 198.761 422.683 198.029 422.683 198.029H422.692C422.938 197.957 428.545 196.36 431.331 195.698C431.823 195.901 431.171 197.214 431.626 197.553Z" fill="#AC8170"/>
<path d="M420.971 197.694C420.971 197.694 422.681 198.31 424.864 198.603C428.051 199.036 432.25 198.782 433.566 194.907C435.787 188.388 438.622 184.478 432.088 181.815C428.592 180.39 426.353 180.314 424.834 180.858C423.515 181.327 422.737 182.265 422.149 183.193C420.88 185.189 418.327 196.552 420.971 197.694Z" fill="#FFD2E0"/>
<path d="M422.64 178.148C420.305 179.686 421.066 183.29 423.818 183.775C425.466 184.066 426.848 184.124 427.646 184.481C429.271 185.205 430.668 185.973 430.283 188.501C430.153 189.362 429.735 190.411 431.94 189.891C432.301 189.806 432.564 189.83 432.742 189.939C433.656 190.483 432.487 193.124 432.135 193.696C432.135 193.696 431.626 195.588 432.754 196.508C432.89 196.619 435.103 197.589 440.438 189.399C441.275 188.115 442.074 185.217 440.781 182.429C439.488 179.64 435.881 176.113 429.087 176.113C427.318 176.113 424.658 176.816 422.64 178.148Z" fill="#233862"/>
<path d="M445.458 249.653C444.462 254.283 444.716 254.331 443.196 253.116C436.99 248.168 438.802 245.575 440.182 241.286C441.559 236.998 436.722 230.291 440.182 227.431C443.568 224.637 445.493 229.142 445.577 229.343C445.598 236.432 445.526 243.916 445.458 249.653Z" fill="#ECE3FC"/>
<path d="M445.305 249.057C445.305 249.057 442.969 252.895 441.435 252.76C439.901 252.624 437.831 252.05 436.639 253.195C435.444 254.337 433.52 257.289 434.057 258.075C434.596 258.86 436.759 258.165 438.31 257.304C439.868 256.443 442.316 257.728 443.619 256.749C444.922 255.773 448.047 251.892 448.047 251.892L445.305 249.057Z" fill="#FFD2E0"/>
<path d="M444.381 207.236C444.381 207.236 463.788 225.561 461.268 237.754C460.121 243.31 456.555 247.996 447.059 255.583C447.059 255.583 442.566 252.468 441.579 249.938C441.579 249.938 450.201 237.754 449.87 235.679C449.459 233.14 443.574 226.771 441.465 225.782C439.353 224.792 439.548 209.362 444.381 207.236Z" fill="#E4D4FF"/>
<path d="M441.433 252.761C441.433 252.761 439.388 251.863 438.729 251.478C438.073 251.094 438.218 251.717 438.419 252.027C438.62 252.339 439.169 253.036 439.973 253.108C440.777 253.183 441.433 252.761 441.433 252.761Z" fill="#FFD2E0"/>
<path d="M142.717 212.934C142.016 211.575 158.026 206.686 158.279 220.089C158.279 220.089 188.271 219.348 173.951 202.572C168.993 196.765 169.503 191.964 169.652 187.494C169.802 183.024 166.564 170.032 155.463 171.338C155.463 171.338 152.555 170.152 148.927 172.041C140.677 176.337 122.194 217.876 142.717 212.934Z" fill="#163560"/>
<path d="M191.751 225.237C191.751 225.237 193.703 222.255 195.276 222.196C196.85 222.137 199.763 221.32 199.53 221.903C199.297 222.488 197.491 222.547 197.316 222.897C197.141 223.249 199.996 223.775 200.812 223.834C201.628 223.891 203.551 223.834 203.492 224.243C203.434 224.651 200.027 226.348 197.622 226.115C195.218 225.879 192.246 226.816 192.246 226.816L191.751 225.237Z" fill="#FFD2E0"/>
<path d="M163.516 226.201C163.516 226.201 164.578 228.309 166.502 230.732C168.822 233.649 172.399 237.015 176.89 237.682C179.035 237.998 181.133 237.535 183.061 236.677L183.068 236.674C188.523 234.245 192.624 228.657 192.624 228.657C193.585 226.024 192.012 224.241 192.012 224.241C192.012 224.241 180.998 226.728 179.949 226.201C178.901 225.675 172.452 211.317 171.29 208.925C168.821 203.843 164.903 202.384 164.903 202.384L163.516 226.201Z" fill="#ECE3FC"/>
<path d="M166.503 230.732C168.823 233.649 172.4 237.015 176.891 237.682C179.036 237.998 181.134 237.535 183.062 236.677C182.849 236.703 177.401 237.38 175.23 233.481C173.015 229.505 170.62 223.189 167.33 225.295C165.91 226.204 165.973 228.46 166.503 230.732Z" fill="#E4D4FF"/>
<path d="M122.427 345.509C122.427 345.509 119.067 348.587 119.722 350.774C120.378 352.96 123.411 354.42 123.821 357.092C124.231 359.766 125.87 361.223 127.345 361.223C128.821 361.223 134.379 361.223 134.379 361.223C134.379 361.223 135.466 359.342 132.843 358.774C130.219 358.208 129.23 355.066 129.394 352.152C129.558 349.236 129.149 345.347 129.149 345.347L123.575 344.051L122.427 345.509Z" fill="#1D3356"/>
<path d="M150.871 346.817C150.871 346.817 149.662 359.855 151.138 360.582L170.02 360.545C170.02 360.545 170.02 358.358 166.987 357.871C163.954 357.386 158.626 355.603 157.725 351.634C156.823 347.667 150.871 346.817 150.871 346.817Z" fill="#1D3356"/>
<path d="M136.347 217.408C136.347 217.408 136.065 221.388 136.347 226.166C136.534 229.334 139.726 233.575 140.179 234.623C141.315 237.256 142.597 237.684 142.597 237.684L152.51 240.122L155.996 240.978L166.989 237.684C166.989 237.684 171.996 223.658 169.986 215.765C167.975 207.869 164.904 202.386 164.904 202.386C164.904 202.386 157.451 199.436 144.254 201.639L136.347 217.408Z" fill="#ECE3FC"/>
<path d="M139.247 227.458C139.434 230.624 139.724 233.573 140.177 234.622C141.314 237.255 142.595 237.683 142.595 237.683L152.509 240.121L156.815 238.852C156.815 238.852 142.441 236.665 144.034 224.253L139.247 227.458Z" fill="#E4D5FF"/>
<path d="M166.29 239.81C166.29 239.81 171.733 256.816 172.083 262.605C172.433 268.394 161.677 344.85 161.244 347.517C160.836 350.032 157.725 351.633 157.725 351.633C157.725 351.633 156.294 352.481 154.251 351.902C151.418 351.1 150.522 350.139 150.522 350.139C150.522 350.139 146.285 295.611 148.907 276.133C151.529 256.654 151.56 239.81 151.56 239.81H166.29Z" fill="#3C5BA7"/>
<path d="M143.227 239.304C143.227 239.304 134.923 250.485 134.149 258.044C133.375 265.603 132.934 292.151 131.285 299.52C129.636 306.889 123.576 321.068 123.576 344.051C123.576 344.051 124.206 345.368 126.151 346.069C126.773 346.294 127.606 346.513 128.415 346.699C130.019 347.068 131.664 346.281 132.396 344.802C136.493 336.525 149.543 309.826 150.212 304.285C150.685 300.364 154.806 274.405 163.794 259.176C165.952 255.519 162.47 240.977 162.47 240.977L143.227 239.304Z" fill="#2B478B"/>
<path d="M167.16 237.187C167.16 237.187 164.974 238.922 160.633 239.009C155.447 239.114 142.598 237.683 142.598 237.683C142.598 237.683 142.027 239.282 142.05 240.973C142.05 240.973 157.744 244.947 166.837 241.554C166.837 241.554 168.01 239.339 167.16 237.187Z" fill="#233862"/>
<path d="M160.295 240.804C160.295 241.853 161.005 242.705 161.877 242.705C162.75 242.705 163.459 241.853 163.459 240.804C163.459 239.758 162.75 238.904 161.877 238.904C161.005 238.904 160.295 239.758 160.295 240.804ZM159.511 240.804C159.511 239.323 160.572 238.117 161.877 238.117C163.182 238.117 164.243 239.323 164.243 240.804C164.243 242.288 163.182 243.494 161.877 243.494C160.572 243.494 159.511 242.288 159.511 240.804Z" fill="white"/>
<path d="M146.222 240.313C146.403 240.361 152.992 241.139 152.993 242.504C152.994 244.083 151.062 246.2 149.242 246.1C148.504 246.061 145.105 242.923 145.105 242.923L146.222 240.313Z" fill="#FFD2E0"/>
<path d="M149.607 200.914C150.356 199.09 150.794 196.311 150.781 192.872L151.279 192.971L159.648 194.633C159.648 194.633 159.458 197.277 159.452 199.767C159.452 199.787 159.452 199.809 159.452 199.828C159.442 201.991 160.908 204.16 157.451 205.019C156.383 205.283 148.033 204.746 149.607 200.914Z" fill="#FFD2E0"/>
<path d="M159.648 194.634C159.648 194.634 159.458 197.277 159.452 199.768C154.769 199.635 152.294 195.348 151.279 192.971L159.648 194.634Z" fill="#FFBED2"/>
<path d="M161.213 196.991C161.213 196.991 150.132 197.175 150.125 190.249C150.117 183.322 148.682 178.682 155.756 178.271C162.83 177.862 164.207 180.504 164.77 182.815C165.333 185.126 164.095 196.766 161.213 196.991Z" fill="#FFD2E0"/>
<path d="M160.802 178.102C160.802 178.102 157.768 186.227 153.112 187.429C148.456 188.63 146.437 187.378 146.437 187.378C146.437 187.378 150.008 184.532 150.749 179.562C150.749 179.562 158.513 174.233 160.802 178.102Z" fill="#163560"/>
<path d="M160.051 178.762C160.051 178.762 162.3 179.605 163.226 181.253C164.132 182.863 164.903 184.995 164.724 187.61C164.724 187.61 167.01 182.087 164.441 178.963C161.717 175.651 160.051 178.762 160.051 178.762Z" fill="#163560"/>
<path d="M146.224 240.313C146.224 240.313 147.803 239.804 148.859 239.953C149.914 240.101 150.695 239.931 150.695 240.228C150.695 240.525 149.332 240.663 149.043 240.805C148.753 240.949 146.224 240.313 146.224 240.313Z" fill="#FFD2E0"/>
<path d="M144.254 201.637C144.254 201.637 136.388 202.192 133.373 209.546C130.358 216.902 124.638 229.252 124.638 231.33C124.638 233.407 127.833 239.811 144.994 243.494C144.994 243.494 146.769 241.619 146.662 240.138C146.662 240.138 135.949 230.904 135.978 229.824C136.032 227.784 137.734 225.088 147.139 215.646C149.697 213.079 144.254 201.637 144.254 201.637Z" fill="#ECE3FC"/>
</svg>
