<svg width="41" height="40" viewBox="0 0 41 40" fill="none" xmlns="http://www.w3.org/2000/svg">
<g clip-path="url(#clip0_1_592)">
<path d="M11.0969 0.16452C7.58129 0.922333 4.87817 3.50827 3.91724 7.03171C3.72192 7.75046 3.71411 7.85202 3.68286 10.5239L3.65942 13.2817H5.99536H8.3391L8.37817 10.9926C8.41723 8.48483 8.45629 8.19577 8.92504 7.26608C9.0891 6.92233 9.37035 6.55515 9.80004 6.13327C10.761 5.17233 11.7297 4.75827 13.0422 4.75827C14.3547 4.75827 15.3235 5.17233 16.2844 6.13327C16.7141 6.55515 16.9953 6.92233 17.1594 7.26608C17.6281 8.19577 17.6672 8.48483 17.7063 10.9926L17.7453 13.2817H20.0891H22.425L22.4016 10.5239C22.3703 7.85202 22.3625 7.75046 22.1672 7.03171C21.7063 5.32858 20.9094 3.95358 19.6906 2.72702C18.4563 1.50046 17.0735 0.703583 15.386 0.250458C14.7532 0.0863953 14.4407 0.0551453 13.2375 0.0317078C12.05 0.00827026 11.7141 0.0317078 11.0969 0.16452Z" fill="#FCB497"/>
<path d="M2.32707 15.7417C1.86614 15.9136 1.3427 16.3042 1.05364 16.7027C0.514573 17.437 0.538011 17.0308 0.561448 24.7339L0.584886 31.6792L0.780198 32.0698C1.02239 32.5698 1.56926 33.1167 2.06926 33.3589L2.45989 33.5542L11.3896 33.5777C16.2958 33.5855 20.3114 33.5855 20.3114 33.5699C20.3114 33.5542 20.2255 33.2808 20.1161 32.9605C19.8271 32.1167 19.6239 31.273 19.4833 30.3667C19.3271 29.3277 19.2333 22.437 19.3661 21.3745C19.4755 20.4448 19.7724 19.8198 20.3818 19.2105C21.0068 18.5855 21.6239 18.3042 22.5849 18.1948C23.6943 18.062 23.8974 17.9136 24.5146 16.7808L24.7646 16.3355L24.4286 16.1089C23.6864 15.5933 24.413 15.6245 12.9833 15.6323C4.39739 15.6323 2.56926 15.6558 2.32707 15.7417ZM14.4755 20.2886C15.1786 20.6245 15.8583 21.2964 16.1943 22.0073C16.4286 22.5073 16.4443 22.5855 16.4443 23.437C16.4443 24.2808 16.4286 24.3667 16.2021 24.8433C15.8896 25.4995 15.2802 26.1558 14.7021 26.4683L14.2411 26.7183L14.2021 27.562C14.1708 28.2495 14.1396 28.4605 14.0068 28.6792C13.5536 29.4058 12.538 29.4058 12.0849 28.6792C11.9521 28.4605 11.9208 28.2495 11.8896 27.562L11.8505 26.7183L11.3896 26.4683C10.8114 26.1558 10.2021 25.4995 9.88957 24.8433C9.66301 24.3667 9.64738 24.2808 9.64738 23.437C9.64738 22.5855 9.66301 22.5073 9.89738 22.0073C10.1864 21.398 10.8739 20.6636 11.4052 20.3902C12.038 20.062 12.3427 19.9995 13.163 20.023C13.8583 20.0386 14.0068 20.0698 14.4755 20.2886Z" fill="#FCB497"/>
<path d="M12.3867 22.4141C12.0273 22.6562 11.8711 22.9531 11.8711 23.4375C11.8711 23.9219 12.0273 24.2188 12.3867 24.4609C12.543 24.5625 12.7539 24.6094 13.043 24.6094C13.5273 24.6094 13.8242 24.4531 14.0664 24.0938C14.2695 23.7891 14.2695 23.0859 14.0664 22.7812C13.8242 22.4219 13.5273 22.2656 13.043 22.2656C12.7539 22.2656 12.543 22.3125 12.3867 22.4141Z" fill="#FCB497"/>
<path d="M26.8242 17.5C26.6836 17.5937 26.457 17.8906 26.2773 18.2187C25.5664 19.5312 24.5273 20.2422 23.1211 20.3984C22.3086 20.4922 22.0117 20.6172 21.7852 20.9844C21.6445 21.2187 21.6367 21.4141 21.6367 25.3984C21.6367 28.6875 21.6602 29.7187 21.7539 30.2734C22.3789 34.1172 24.8711 37.5078 28.332 39.2187C30.1289 40.1016 30.6602 40.1641 31.9492 39.6562C35.9961 38.0469 38.9258 34.3281 39.5195 30.0469C39.5742 29.6797 39.6055 27.8437 39.6055 25.3359C39.6055 21.4141 39.5977 21.2187 39.457 20.9844C39.2305 20.6172 38.9336 20.4922 38.1211 20.3984C36.707 20.2422 35.6758 19.5312 34.9648 18.2187C34.457 17.2812 34.7461 17.3437 30.6133 17.3437C27.2227 17.3437 27.0586 17.3516 26.8242 17.5ZM34.2695 25.3984C34.8008 25.5937 35.1367 26.1719 35.0352 26.7031C34.9883 26.9531 34.6367 27.3359 32.6289 29.3672C30.1055 31.8984 29.8633 32.0937 29.3008 31.9922C29.0664 31.9531 28.7852 31.7109 27.6758 30.6016C26.2617 29.2031 26.1055 28.9766 26.1992 28.4766C26.3008 27.9297 26.7695 27.5781 27.3867 27.5781C27.7461 27.5781 27.7617 27.5859 28.6211 28.4375L29.4961 29.2969L31.3242 27.4531C33.4102 25.3516 33.6758 25.1719 34.2695 25.3984Z" fill="#FCB497"/>
</g>
<defs>
<clipPath id="clip0_1_592">
<rect width="40" height="40" fill="white" transform="translate(0.0742188)"/>
</clipPath>
</defs>
</svg>
