<svg width="205" height="218" viewBox="0 0 205 218" fill="none" xmlns="http://www.w3.org/2000/svg">
<path d="M7.75931 98.912C7.75931 150.483 49.5638 192.288 101.133 192.288C152.704 192.288 194.509 150.483 194.509 98.912C194.509 47.3425 152.704 5.53807 101.133 5.53807C49.5638 5.53807 7.75931 47.3425 7.75931 98.912Z" fill="#FFD5E3"/>
<path d="M21.4417 98.913C21.4417 142.925 57.1213 178.605 101.134 178.605C145.146 178.605 180.826 142.925 180.826 98.913C180.826 54.9008 145.146 19.2212 101.134 19.2212C57.1213 19.2212 21.4417 54.9008 21.4417 98.913Z" fill="#E194AE"/>
<path d="M101.135 19.2229C145.076 19.2229 180.826 54.9707 180.826 98.913C180.826 142.856 145.076 178.605 101.135 178.605C57.1933 178.605 21.4439 142.856 21.4439 98.913C21.4439 54.9707 57.1933 19.2229 101.135 19.2229ZM101.135 182.597C147.277 182.597 184.817 145.057 184.817 98.913C184.817 52.7703 147.277 15.2305 101.135 15.2305C54.9913 15.2305 17.4515 52.7703 17.4515 98.913C17.4515 145.057 54.9913 182.597 101.135 182.597Z" fill="white"/>
<path d="M52.5496 98.9124C52.5496 125.745 74.3013 147.497 101.133 147.497C127.966 147.497 149.718 125.745 149.718 98.9124C149.718 72.0806 127.966 50.329 101.133 50.329C74.3013 50.329 52.5496 72.0806 52.5496 98.9124Z" fill="#D67F9C"/>
<path d="M101.134 54.3208C125.723 54.3208 145.727 74.3248 145.727 98.9135C145.727 123.502 125.723 143.506 101.134 143.506C76.5453 143.506 56.5413 123.502 56.5413 98.9135C56.5413 74.3248 76.5453 54.3208 101.134 54.3208ZM101.134 151.489C130.124 151.489 153.709 127.904 153.709 98.9135C153.709 69.9232 130.124 46.3383 101.134 46.3383C72.1438 46.3383 48.5589 69.9232 48.5589 98.9135C48.5589 127.904 72.1438 151.489 101.134 151.489Z" fill="white"/>
<path d="M82.3112 98.9127C82.3112 109.308 90.7377 117.736 101.133 117.736C111.53 117.736 119.956 109.308 119.956 98.9127C119.956 88.5172 111.53 80.0896 101.133 80.0896C90.7377 80.0896 82.3112 88.5172 82.3112 98.9127Z" fill="#C85E81"/>
<path d="M101.135 84.0819C109.312 84.0819 115.966 90.7354 115.966 98.9131C115.966 107.092 109.312 113.744 101.135 113.744C92.9569 113.744 86.3035 107.092 86.3035 98.9131C86.3035 90.7354 92.9569 84.0819 101.135 84.0819ZM101.135 121.729C113.714 121.729 123.949 111.494 123.949 98.9131C123.949 86.3334 113.714 76.0989 101.135 76.0989C88.5537 76.0989 78.3193 86.3334 78.3193 98.9131C78.3193 111.494 88.5537 121.729 101.135 121.729Z" fill="white"/>
<path d="M12.0368 10.0578L10.0555 12.0407L85.1305 87.1157L87.1134 85.1328L12.0368 10.0578Z" fill="#483D5C"/>
<path d="M85.7097 80.3486C84.5717 79.2117 79.21 84.5746 80.3468 85.7115L100.235 101.345C100.97 101.923 101.922 100.972 101.344 100.236L85.7097 80.3486Z" fill="#483D5C"/>
<path d="M10.0993 12.0843L-0.000102997 13.0885L13.864 26.9527C18.407 31.4957 24.7477 33.7626 31.1407 33.1259L10.0993 12.0843Z" fill="#483D5C"/>
<path d="M12.0801 10.0995L13.0844 9.91821e-05L26.9495 13.8652C31.4922 18.408 33.7587 24.7497 33.1235 31.1431L12.0801 10.0995Z" fill="#483D5C"/>
<path d="M200.183 8.1062C200.201 8.1062 200.219 8.10466 200.238 8.10312C200.635 8.07383 200.934 7.72701 200.905 7.32933C200.876 6.93935 200.838 6.54167 200.793 6.15015C200.752 5.78176 200.439 5.51047 200.077 5.51047C200.049 5.51047 200.022 5.51201 199.993 5.51509C199.597 5.56133 199.312 5.91894 199.358 6.31508C199.401 6.68811 199.436 7.06421 199.464 7.43569C199.475 7.58983 199.533 7.72701 199.623 7.83799C199.756 8.00138 199.959 8.1062 200.183 8.1062Z" fill="#DEE8FD"/>
<path d="M164.662 37.354C164.485 37.1542 164.304 36.9517 164.124 36.7547C164.143 36.8856 164.197 37.0071 164.279 37.1083C164.372 37.2231 164.5 37.3108 164.653 37.3513C164.656 37.3513 164.659 37.3527 164.662 37.354Z" fill="#DEE8FD"/>
<path d="M120.638 1.37219C120.635 1.36592 120.633 1.36121 120.631 1.35651C120.552 1.19808 120.393 1.10554 120.228 1.10554C120.163 1.10554 120.096 1.11966 120.033 1.15103C119.99 1.17142 119.953 1.19809 119.92 1.22946C120.161 1.27652 120.397 1.32357 120.638 1.37219Z" fill="url(#paint0_linear_1_314)"/>
<path d="M175.764 209.325C175.764 209.325 176.266 212.02 176.525 214.689C176.627 215.732 175.83 216.646 174.783 216.7C171.227 216.882 163.62 217.242 160.888 217.147C160.477 217.133 160.205 216.715 160.353 216.331C160.477 216.011 160.72 215.749 161.032 215.602L173.547 209.705L175.764 209.325Z" fill="#233862"/>
<path d="M176.139 207.736L175.787 210.968C175.787 210.968 173.594 212.014 172.08 210.874L172.957 207.268L176.139 207.736Z" fill="#FFD2E0"/>
<path d="M175.272 147.048C175.445 147.89 176.561 189.109 172.331 207.626C172.262 207.927 172.418 208.237 172.706 208.351C173.384 208.621 174.713 209.008 176.301 209.046C176.793 209.058 177.231 208.734 177.366 208.261C178.584 203.962 184.415 182.429 185.007 161.906C185.668 138.973 185 161.125 185 161.125L184.348 146.96L175.272 147.048Z" fill="#2B478B"/>
<path d="M190.237 210.596C190.237 210.596 191.009 211.952 191.778 215.565C191.917 216.217 191.466 216.848 190.803 216.919C189.629 217.046 187.822 217.212 186.373 217.215C185.705 217.217 185.179 216.641 185.253 215.977C185.401 214.654 185.88 212.481 187.408 210.776L190.237 210.596Z" fill="#233862"/>
<path d="M190.864 206.437L190.016 211.327C190.016 211.327 189.137 211.993 187.382 211.534L187.759 206.277L190.864 206.437Z" fill="#FEBBBA"/>
<path d="M192.726 148.146C196.537 169.862 192.457 201.913 191.037 208.192C190.951 208.576 190.644 208.873 190.256 208.941C189.596 209.057 188.51 209.157 187.436 208.855C187.065 208.752 186.803 208.422 186.784 208.037C186.537 202.974 186.598 171.877 183.122 159.621C182.946 158.999 182.561 158.459 182.031 158.091L175.469 153.519L174.898 146.034L192.726 148.146Z" fill="#2B478B"/>
<path d="M169.367 107.153C180.166 106.87 192.113 109.771 192.113 109.771C195.511 128.526 193.062 150.219 193.062 150.219C184.721 152.492 175.255 149.048 175.255 149.048C173.79 141.21 167.095 119.174 167.095 119.174C161.811 118.569 157.449 117.088 153.85 115.11C156.551 111.918 157.8 107.878 158.336 105.491C162.166 106.642 166.037 107.239 169.367 107.153Z" fill="#C85E81"/>
<path d="M137.311 91.546C138.36 90.2542 139.709 90.8481 139.709 90.8481C141.362 97.5464 149.748 102.911 158.335 105.491C157.799 107.877 156.55 111.917 153.85 115.109C139.564 107.255 137.311 91.546 137.311 91.546Z" fill="#FFD2E0"/>
<path d="M137.572 91.8704C137.465 92.2253 138.756 92.7501 139.499 91.299C139.518 90.6065 139.911 87.6393 139.492 87.0799C137.262 84.0986 132.958 80.3772 132.958 80.3772C132.242 81.0957 132.844 81.7894 132.844 81.7894L134.935 83.9266C134.509 84.7133 133.988 85.3798 133.749 86.3289C133.568 87.0474 133.69 87.8124 134.059 88.4617C134.428 89.1121 134.933 89.9594 135.408 90.6205C136.307 91.8725 137.572 91.8704 137.572 91.8704Z" fill="#FFD2E0"/>
<path d="M135.854 85.3178L137.756 86.8997L138.364 88.4869L136.7 90.3696C136.7 90.3696 136.104 87.2142 135.677 86.5347C135.25 85.8542 135.464 85.5208 135.854 85.3178Z" fill="#FFBCD1"/>
<path d="M188.07 120.268L192.113 109.77C192.113 109.77 202.267 116.529 204.009 125.205C202.104 125.362 198.64 125.892 195.261 127.64C194.476 123.542 188.07 120.268 188.07 120.268Z" fill="#C85E81"/>
<path d="M179.347 130.194C179.347 130.194 190.735 136.487 194.505 130.985C195.288 129.842 195.467 128.713 195.261 127.639C198.64 125.892 202.104 125.363 204.009 125.204C204.534 127.82 204.296 130.609 202.784 133.44C196.206 145.75 177.875 133.001 177.875 133.001L179.347 130.194Z" fill="#FFD2E0"/>
<path d="M180.224 98.2778L183.755 108.184C183.814 108.348 183.748 108.531 183.596 108.616C182.664 109.143 179.304 110.674 175.212 108.133C174.785 107.869 174.493 107.433 174.424 106.936L173.229 98.3449L180.224 98.2778Z" fill="#FFD2E0"/>
<path d="M172.658 89.1463C172.658 89.1463 168.952 96.2859 169.463 99.1508C169.975 102.016 174.65 101.765 178.712 99.3955L181.492 91.6975L172.658 89.1463Z" fill="#FFD2E0"/>
<path d="M178.495 95.6301C178.329 95.5581 178.265 95.3556 178.363 95.2029C178.661 94.7376 179.219 93.791 179.392 92.9642C179.392 92.9642 180.066 92.5232 177.656 91.9709C175.245 91.4176 171.65 90.5579 170.876 88.5184C170.122 86.5298 172.006 81.4905 175.125 85.4613C175.244 85.6129 175.473 85.6129 175.589 85.4603C176.088 84.7978 177.403 83.4208 179.254 84.2306C180.987 84.9886 181.193 86.25 181.176 86.8871C181.17 87.0758 181.339 87.2199 181.523 87.1818C182.394 87.0079 184.486 86.8447 185.483 88.9827C186.305 90.7445 185.791 91.7504 185.32 92.2444C185.167 92.4045 185.237 92.6653 185.449 92.7278C186.024 92.8974 186.769 93.3765 186.708 94.7206C186.623 96.5789 184.546 96.4347 183.954 96.3552C183.857 96.3435 183.759 96.3774 183.695 96.4506C183.193 97.0156 180.933 99.4197 178.464 99.7292C178.25 99.7568 178.082 99.5469 178.15 99.3423L179.19 96.2237C179.239 96.0785 179.168 95.9206 179.028 95.8602L178.495 95.6301Z" fill="#483D5C"/>
<path d="M178.069 96.0758C178.069 96.0758 180.739 94.2067 180.95 95.7575C181.161 97.3084 178.552 98.0292 177.251 97.4631L178.069 96.0758Z" fill="#FFBCD1"/>
<path d="M181.674 140.139L175.471 118.475C175.4 118.229 175.191 118.05 174.936 118.021C173.812 117.889 170.556 117.521 166.795 117.203C162.266 116.82 157.006 116.51 153.863 116.773C153.416 116.811 153.146 117.283 153.345 117.686C155.132 121.302 162.484 136.012 166.166 140.83C166.288 140.99 166.477 141.083 166.678 141.081L181.071 140.948C181.49 140.944 181.79 140.542 181.674 140.139Z" fill="#FFF0EB"/>
<path d="M180.176 134.906C180.176 134.906 181.04 131.353 180.691 130.092C180.343 128.831 179.667 127.21 177.416 127.571C175.165 127.931 172.509 128.879 172.509 128.879C172.509 128.879 172.644 130.521 174.355 129.992L173.294 130.812C173.294 130.812 173.445 132.127 174.89 131.425L173.904 132.514C173.904 132.514 174.524 133.593 175.587 132.901C176.651 132.208 177.16 135.333 180.176 134.906Z" fill="#FFD2E0"/>
<path d="M167.209 123.67C167.209 124.676 166.394 125.491 165.388 125.491C164.382 125.491 163.567 124.676 163.567 123.67C163.567 122.664 164.382 121.849 165.388 121.849C166.394 121.849 167.209 122.664 167.209 123.67Z" fill="#FCB497"/>
<path d="M174.769 124.87L173.506 120.586C173.351 120.06 172.928 119.665 172.402 119.555C168.443 118.729 157.608 118.554 157.499 118.552L157.506 118.068C157.953 118.075 168.497 118.246 172.501 119.081C173.201 119.227 173.764 119.752 173.97 120.449L175.233 124.733L174.769 124.87Z" fill="#FCB497"/>
<defs>
<linearGradient id="paint0_linear_1_314" x1="-316.423" y1="312.519" x2="72.6585" y2="-170.645" gradientUnits="userSpaceOnUse">
<stop stop-color="#C4D5FD"/>
<stop offset="1" stop-color="#CEDDFC"/>
</linearGradient>
</defs>
</svg>
