<svg width="192" height="133" viewBox="0 0 192 133" fill="none" xmlns="http://www.w3.org/2000/svg">
<path d="M192 1.52588e-05L131.347 17.0757L146.01 31.9162C129.747 48.4536 109.411 69.2179 108.869 70.1988C107.963 71.8399 92.1809 39.5767 92.1809 39.5767L49.5717 86.659L34.0159 66.0805L0 104.091L31.7572 82.458L48.9165 104.834L87.217 65.9277L103.548 99.304L160.486 46.5664L176.246 62.5168L192 1.52588e-05Z" fill="#FCB497"/>
<path d="M104.146 99.3951L161.599 47.7067L158.333 43.7934L104.146 99.3951Z" fill="#FF986F"/>
<path d="M48.9164 104.834L89.4025 70.3078L87.2397 65.9339L48.9164 104.834Z" fill="#FF986F"/>
<path d="M31.7572 82.4575L0 104.09L33.9023 85.2542L31.7572 82.4575Z" fill="#FF986F"/>
<path d="M132.759 67.4506C125.637 55.2169 106.604 60.6905 106.534 60.7106C101.056 67.7275 93.8882 78.5979 90.5653 90.845C84.8023 112.086 91.8826 122.79 91.8826 122.79C91.8826 122.79 95.8344 131.022 118.887 128.717C126.75 127.931 133.902 128.21 139.939 128.08C150.16 107.268 139.893 79.707 132.759 67.4506Z" fill="#FFD8C7"/>
<path d="M159.56 111.922C160.053 93.315 142.908 60.6614 130.743 52.4787H113.67C113.67 52.4787 110.557 55.5577 106.534 60.711C106.604 60.6909 125.637 55.2173 132.759 67.451C139.894 79.7074 150.16 107.268 139.94 128.081C151.66 127.829 159.185 126.038 159.56 111.922Z" fill="#FFC8B3"/>
<path d="M113.67 52.479C113.67 52.479 99.372 31.5221 109.432 31.8692C119.492 32.2162 117.63 35.8584 123.938 35.1648C130.246 34.4706 131.46 29.9614 138.745 32.7366C146.03 35.5114 129.205 54.4175 129.205 54.4175L113.67 52.479Z" fill="#FFD8C7"/>
<path d="M71.6747 125.477C71.3673 125.51 71.0564 125.533 70.7463 125.55C70.6402 125.556 70.5357 125.563 70.4312 125.565C70.1912 125.576 69.9527 125.583 69.7159 125.587C58.3303 125.691 48.7576 116.827 48.1058 105.339C47.4847 94.3804 55.2012 84.8782 65.7446 83.0012C66.5856 82.8515 67.4441 82.7487 68.3179 82.6999C68.6313 82.6821 68.944 82.672 69.2552 82.6673C69.5576 82.6625 69.8592 82.6653 70.1593 82.6736C71.0785 82.6991 71.9843 82.7851 72.8741 82.9243C74.1952 83.1305 75.4799 83.459 76.7158 83.8978C80.5451 85.2604 83.8936 87.6848 86.3832 90.8356C89.0246 94.1767 90.6983 98.3359 90.9566 102.912C91.6093 114.433 83.0491 124.345 71.6747 125.477Z" fill="#FFA07A"/>
<path d="M77.4872 87.7496C74.7765 86.4495 71.7112 85.7957 68.5035 85.977C58.3569 86.5514 50.5695 95.2743 51.1445 105.421C51.7192 115.568 60.4427 123.355 70.5877 122.78C80.7353 122.204 88.5218 113.483 87.9472 103.336C87.5537 96.398 83.3501 90.5615 77.4872 87.7496ZM61.1414 121.979C54.9348 119.002 50.4858 112.827 50.0702 105.481C49.4614 94.7428 57.7034 85.5108 68.4423 84.9024C79.1811 84.294 88.4133 92.5362 89.0221 103.274C89.6302 114.014 81.388 123.246 70.6495 123.855C67.2559 124.046 64.0102 123.355 61.1414 121.979Z" fill="white"/>
<path d="M75.0173 115.011C74.6827 114.728 74.3454 114.445 74.0109 114.162C73.2035 113.484 72.3989 112.803 71.5915 112.124C70.6183 111.305 69.6478 110.487 68.6745 109.668C67.8312 108.957 66.9879 108.246 66.1446 107.537C65.7354 107.192 65.332 106.839 64.9142 106.501C64.9087 106.496 64.9032 106.491 64.8976 106.486C65.0292 106.776 65.1607 107.067 65.2895 107.357C65.2946 107.126 65.2998 106.892 65.305 106.66C64.8257 107.057 64.3493 107.451 63.8701 107.848C64.4163 107.86 64.9653 107.872 65.5115 107.884C66.0746 107.896 66.643 107.926 67.2066 107.917C68.5113 107.894 69.8251 107.589 70.9342 106.992C72.0034 106.416 72.9283 105.617 73.5384 104.658C74.1661 103.669 74.5153 102.536 74.473 101.402C74.4304 100.281 74.0723 99.1594 73.381 98.203C72.7033 97.2664 71.7609 96.4508 70.6348 95.9188C69.5727 95.4175 68.4016 95.1332 67.1937 95.1065C65.9831 95.0798 64.7696 95.053 63.5589 95.0262C63.5195 95.0253 63.4829 95.0245 63.4435 95.0237C63.0831 95.0157 62.7 95.1438 62.4389 95.3574C62.1892 95.564 61.9985 95.906 62.0086 96.211C62.0184 96.5258 62.1294 96.8549 62.4004 97.0828C62.6714 97.3082 63.0062 97.4521 63.3891 97.4606C64.5745 97.4867 65.7626 97.513 66.9479 97.5392C67.2802 97.5465 67.6122 97.5612 67.9408 97.605C67.8173 97.5876 67.6909 97.5702 67.5673 97.5528C68.0953 97.6255 68.6078 97.7587 69.0966 97.9475C68.9849 97.9035 68.8732 97.8596 68.7642 97.8182C69.2417 98.0067 69.6871 98.2458 70.0948 98.5303C70.0005 98.4648 69.909 98.3994 69.8147 98.3339C70.2085 98.6132 70.5591 98.9306 70.8639 99.2836C70.7926 99.1991 70.7212 99.1171 70.6498 99.0326C70.96 99.3978 71.2159 99.7936 71.4122 100.215C71.3665 100.116 71.3208 100.018 71.2779 99.9217C71.4739 100.353 71.6047 100.802 71.6649 101.261C71.6504 101.154 71.6359 101.044 71.6214 100.936C71.679 101.386 71.6688 101.842 71.5912 102.289C71.6105 102.182 71.6299 102.073 71.6492 101.966C71.5685 102.422 71.4178 102.865 71.2028 103.287C71.2528 103.191 71.3029 103.094 71.35 103C71.1352 103.412 70.8618 103.796 70.5357 104.148C70.6107 104.066 70.6857 103.988 70.7608 103.906C70.4406 104.245 70.0761 104.547 69.6702 104.809C69.7674 104.748 69.8617 104.686 69.9589 104.625C69.5388 104.891 69.0832 105.11 68.5978 105.278C68.7114 105.239 68.8249 105.2 68.9356 105.163C68.4389 105.33 67.9209 105.441 67.3903 105.49C67.5145 105.478 67.6415 105.466 67.7657 105.454C67.2633 105.499 66.7596 105.476 66.2556 105.465C65.6334 105.451 65.014 105.437 64.3918 105.424C64.2369 105.42 64.0792 105.417 63.9244 105.413C63.1642 105.396 62.5042 105.94 62.4895 106.601C62.4844 106.827 62.4765 107.054 62.4743 107.281C62.4721 107.632 62.6308 107.969 62.9211 108.214C63.098 108.362 63.275 108.512 63.452 108.66C64.2234 109.309 64.9948 109.96 65.7662 110.608C66.7893 111.469 67.8123 112.331 68.8353 113.194C69.756 113.971 70.6795 114.747 71.6002 115.523C72.0564 115.908 72.5097 116.296 72.9688 116.677C72.9744 116.682 72.9827 116.687 72.9882 116.692C73.2537 116.915 73.6025 117.062 73.977 117.07C74.3233 117.078 74.7373 116.955 74.9816 116.736C75.2317 116.51 75.4215 116.21 75.4119 115.883C75.4021 115.565 75.2882 115.239 75.0173 115.011Z" fill="white"/>
<path d="M63.3917 97.4468C63.8866 97.4578 64.3815 97.4688 64.8764 97.4799C66.0659 97.5064 67.2554 97.5329 68.4449 97.5595C69.879 97.5914 71.3104 97.6234 72.7445 97.6553C73.9874 97.6831 75.2303 97.7108 76.4732 97.7385C77.0778 97.752 77.6823 97.7728 78.2842 97.7789C78.2926 97.7791 78.3011 97.7793 78.3095 97.7795C78.6694 97.7875 79.0521 97.6596 79.3128 97.4463C79.5622 97.24 79.7526 96.8984 79.7424 96.5937C79.7325 96.2794 79.6216 95.9505 79.3509 95.7229C79.0802 95.4977 78.7458 95.3538 78.3633 95.3453C77.8684 95.3343 77.3735 95.3232 76.8786 95.3122C75.6891 95.2857 74.4996 95.2591 73.3101 95.2326C71.876 95.2006 70.4446 95.1687 69.0105 95.1367C67.7676 95.109 66.5247 95.0813 65.2817 95.0535C64.6771 95.0401 64.0727 95.0193 63.4708 95.0132C63.4624 95.013 63.4539 95.0128 63.4455 95.0126C63.0855 95.0046 62.7029 95.1324 62.4422 95.3458C62.1928 95.5521 62.0024 95.8937 62.0126 96.1983C62.0225 96.5127 62.1334 96.8415 62.4041 97.0692C62.6748 97.2944 63.012 97.4383 63.3917 97.4468Z" fill="white"/>
<path d="M63.2776 102.638C63.7725 102.649 64.2675 102.66 64.7624 102.671C65.9519 102.697 67.1413 102.724 68.3308 102.75C69.765 102.782 71.1963 102.814 72.6304 102.846C73.8733 102.874 75.1163 102.902 76.3592 102.929C76.9638 102.943 77.5682 102.964 78.1701 102.97C78.1786 102.97 78.187 102.97 78.1954 102.97C78.5554 102.978 78.938 102.851 79.1987 102.637C79.4481 102.431 79.6385 102.089 79.6284 101.785C79.6184 101.47 79.5075 101.141 79.2369 100.914C78.9661 100.689 78.6317 100.545 78.2493 100.536C77.7543 100.525 77.2594 100.514 76.7645 100.503C75.575 100.477 74.3855 100.45 73.196 100.423C71.7619 100.391 70.3306 100.36 68.8965 100.328C67.6535 100.3 66.4106 100.272 65.1677 100.244C64.5631 100.231 63.9587 100.21 63.3568 100.204C63.3483 100.204 63.3399 100.204 63.3315 100.203C62.9715 100.195 62.5889 100.323 62.3281 100.537C62.0788 100.743 61.8884 101.084 61.8985 101.389C61.9085 101.704 62.0193 102.032 62.29 102.26C62.5608 102.483 62.898 102.629 63.2776 102.638Z" fill="white"/>
<path d="M122.323 128.439C122.323 128.439 107.689 128.439 103.887 120.443C103.887 120.443 103.175 126.735 108.965 129.082C108.965 129.082 119.25 129.382 122.323 128.439Z" fill="#FFC8B3"/>
<path d="M127.624 47.695C127.624 47.695 132.417 40.4803 133.708 31.8419C133.708 31.8419 143.595 30.9235 139.94 38.5274C139.94 38.5274 138.361 43.5306 132.275 50.7262L127.624 47.695Z" fill="#FFC8B3"/>
<path d="M113.811 53.2665C113.275 53.2759 112.747 53.0195 112.433 52.5402C111.947 51.7983 112.149 50.8044 112.89 50.3153C113.224 50.0933 121.229 44.9315 132.359 48.9029C133.196 49.2018 133.633 50.1228 133.334 50.9608C133.036 51.7983 132.117 52.2352 131.277 51.9363C121.718 48.5277 114.944 52.8217 114.661 53.0057C114.398 53.1763 114.103 53.2612 113.811 53.2665Z" fill="#FF986E"/>
<path d="M134.527 55.8774C134.351 55.8774 134.171 55.8483 133.996 55.7867C119.964 50.8808 110.975 55.6317 110.887 55.6808C110.107 56.1061 109.128 55.8184 108.703 55.0367C108.277 54.2555 108.566 53.2777 109.347 52.852C109.763 52.6256 119.695 47.3757 135.059 52.7462C135.898 53.0396 136.341 53.958 136.047 54.7982C135.816 55.462 135.193 55.8774 134.527 55.8774Z" fill="#FF986E"/>
<path d="M124.892 67.5864C124.682 67.5864 124.469 67.5453 124.264 67.4587C123.445 67.112 123.063 66.1669 123.409 65.3477C127.525 55.6248 123.996 53.7 123.96 53.6822L123.791 53.5785L125.238 50.7265C125.418 50.8011 127.035 51.5198 127.967 53.7876C129.22 56.8353 128.685 61.1475 126.376 66.6033C126.116 67.2175 125.519 67.5864 124.892 67.5864Z" fill="#FF986E"/>
<path d="M138.544 72.1743C137.663 72.2936 136.853 71.6763 136.733 70.7959C136.73 70.7664 136.311 67.8192 134.803 64.4459C132.846 60.0698 130.066 57.06 126.537 55.5011C125.724 55.1416 125.356 54.191 125.715 53.3772C126.075 52.5633 127.025 52.1961 127.839 52.5548C138.019 57.0533 139.852 69.8221 139.925 70.3631C140.044 71.2448 139.426 72.0555 138.544 72.1743Z" fill="#FF986E"/>
</svg>
